<?xml version="1.0" encoding="utf-8"?>
<!-- Generator: Adobe Illustrator 24.1.1, SVG Export Plug-In . SVG Version: 6.00 Build 0)  -->
<svg version="1.1" id="Layer_1" xmlns="http://www.w3.org/2000/svg" xmlns:xlink="http://www.w3.org/1999/xlink" x="0px" y="0px"
	 viewBox="0 0 1024 541" style="enable-background:new 0 0 1024 541;" xml:space="preserve">
<style type="text/css">
	
		.st0{opacity:0.2369;fill-rule:evenodd;clip-rule:evenodd;fill:url(#Rectangle-Copy-20_2_);fill-opacity:0.76;enable-background:new    ;}
	
		.st1{opacity:0.398;fill-rule:evenodd;clip-rule:evenodd;fill:url(#Rectangle-Copy-20_5_);fill-opacity:0.76;enable-background:new    ;}
	.st2{fill-rule:evenodd;clip-rule:evenodd;fill:url(#Rectangle_1_);fill-opacity:0.76;}
	.st3{fill-rule:evenodd;clip-rule:evenodd;fill:#FFFFFF;}
</style>
<desc>Created with Sketch.</desc>
<g>
	<g>
		
			<linearGradient id="Rectangle-Copy-20_2_" gradientUnits="userSpaceOnUse" x1="412.4382" y1="0.962" x2="412.0369" y2="1.08" gradientTransform="matrix(1627.8085 0 0 669.4082 -670648.4375 -293.6152)">
			<stop  offset="0" style="stop-color:#FF0000"/>
			<stop  offset="1" style="stop-color:#FA6400;stop-opacity:0.3631"/>
		</linearGradient>
		<path id="Rectangle-Copy-20" class="st0" d="M1023.6,627.5H-0.4l0.6-474.6l526,125.7c17.3,4.1,35,1.1,51.3-8.7L1024.2,0.2
			L1023.6,627.5z"/>
		
			<linearGradient id="Rectangle-Copy-20_5_" gradientUnits="userSpaceOnUse" x1="412.4577" y1="1.0532" x2="412.0551" y2="1.1397" gradientTransform="matrix(1652.6737 0 0 586.905 -680909.125 -268.717)">
			<stop  offset="0" style="stop-color:#FF0000"/>
			<stop  offset="1" style="stop-color:#FA6400;stop-opacity:0.3631"/>
		</linearGradient>
		<path id="Rectangle-Copy-20_1_" class="st1" d="M1024.8,626.5H0.7l0.6-436l528.8,99.5c15.2,2.8,30.6,0.3,45.1-7.7l449-252.1
			L1024.8,626.5z"/>
		
			<linearGradient id="Rectangle_1_" gradientUnits="userSpaceOnUse" x1="412.4358" y1="1.0807" x2="412.0203" y2="1.1642" gradientTransform="matrix(1587.2629 0 0 570.7327 -653890 -252.6977)">
			<stop  offset="0" style="stop-color:#FF0000"/>
			<stop  offset="1" style="stop-color:#FA6400;stop-opacity:0.3631"/>
		</linearGradient>
		<path id="Rectangle" class="st2" d="M1023.6,627.5H-0.4l0.9-402.4l536.1,74.8c13.6,2,27.4-0.7,40.4-7.4l447.1-230.8L1023.6,627.5z
			"/>
	</g>
	<path class="st3" d="M133.8,230.2"/>
	<path class="st3" d="M0.2,0"/>
</g>
</svg>
