<?xml version="1.0" encoding="UTF-8"?>
<svg width="327px" height="338px" viewBox="0 0 327 338" version="1.1" xmlns="http://www.w3.org/2000/svg" xmlns:xlink="http://www.w3.org/1999/xlink">
    <!-- Generator: Sketch 62 (91390) - https://sketch.com -->
    <title>Mask</title>
    <desc>Created with Sketch.</desc>
    <defs>
        <path d="M10,0 L310.675601,0 C316.147568,6.10024333e-15 320.603363,4.39803912 320.67475,9.86954042 L324.794724,325.64735 C324.866776,331.169727 320.448413,335.704908 314.926035,335.776958 C312.77218,335.80506 310.666822,335.136938 308.923297,333.872026 C304.401527,330.591525 298.94071,326.317999 292.540846,321.05145 C262.707796,296.501363 257.541058,318.717061 235.829388,326.420933 C214.117718,334.124806 211.611106,293.226205 187.981974,299.467717 C164.352843,305.709229 174.188838,319.597233 150.543216,329.012345 C126.897595,338.427457 117.688733,293.83537 103.128368,295.236389 C83.1611526,297.157664 88.9911532,330.152369 70.3132831,333.586998 C61.4882229,335.209817 53.0565237,327.925549 45.0181855,311.734194 C42.5623165,306.787424 36.5612918,304.768147 31.6145201,307.224014 C30.7267265,307.664767 29.9093937,308.235062 29.1893259,308.916195 L16.8719369,320.567582 C12.8597304,324.362848 6.53052349,324.186983 2.73525753,320.174776 C0.978766152,318.317882 2.33099596e-14,315.858875 0,313.302839 L0,10 C-6.76353751e-16,4.4771525 4.4771525,1.01453063e-15 10,0 Z" id="path-1"></path>
    </defs>
    <g id="Welcome" stroke="none" stroke-width="1" fill="none" fill-rule="evenodd">
        <g id="Desktop-Web-Design---1-" transform="translate(-416.000000, -926.000000)">
            <g id="Services" transform="translate(-594.000000, 801.000000)">
                <g id="service-box-2" transform="translate(1011.000000, 126.000000)">
                    <g id="Rectangle">
                        <mask id="mask-2" fill="white">
                            <use xlink:href="#path-1"></use>
                        </mask>
                        <use id="Mask" stroke-opacity="0.592192963" stroke="#CDCDCD" fill="#FFFFFF" xlink:href="#path-1"></use>
                    </g>
                </g>
            </g>
        </g>
    </g>
</svg>