<?xml version="1.0" encoding="utf-8"?>
<!-- Generator: Adobe Illustrator 24.1.1, SVG Export Plug-In . SVG Version: 6.00 Build 0)  -->
<svg version="1.1" id="Layer_1" xmlns="http://www.w3.org/2000/svg" xmlns:xlink="http://www.w3.org/1999/xlink" x="0px" y="0px"
	 viewBox="0 0 512 512" style="enable-background:new 0 0 512 512;" xml:space="preserve">
<style type="text/css">
	.st0{fill:#FC6152;stroke:#72D8FF;stroke-miterlimit:10;}
	.st1{fill:#FC6152;}
	.st2{fill:#FFFFFF;}
	.st3{fill:#D661A4;}
	.st4{fill:#FF9966;}
</style>
<path class="st0" d="M502,74c0-35.3-28.7-64-64-64H155.2c-35.3,0-64,28.7-64,64s28.7,64,64,64H438C473.3,138,502,109.3,502,74z"/>
<path class="st1" d="M502,202c0-35.3-28.7-64-64-64H139.2c-35.3,0-64,28.7-64,64s28.7,64,64,64H438C473.3,266,502,237.3,502,202z"/>
<path class="st2" d="M160.5,480.6V138H75.2v342.6c0,11.8,9.6,21.4,21.4,21.4h85.3C170.1,502,160.5,492.4,160.5,480.6z"/>
<path class="st1" d="M438,480.6V138H160.5v342.6c0,11.8,9.6,21.4,21.4,21.4h234.7C428.4,502,438,492.4,438,480.6z"/>
<path class="st3" d="M282.1,374.9c9.2,0.3,18.5-2.3,26.7-7.8c-0.4-0.3-0.8-0.5-1.2-0.8C300.1,371.7,291.2,374.6,282.1,374.9z"/>
<path class="st2" d="M237.7,315.5c-15.5-11.2-22.7-31.6-16.5-50.7c6.2-19.2,24-31.4,43.2-31.4c3.1-9.7,9.4-17.9,17.7-23.5
	c-7.3-4.9-16-7.8-25.5-7.8c-20.2,0-37.3,13.2-43.2,31.4c-19.1,0-36.9,12.2-43.2,31.4c-6.2,19.2,1,39.5,16.5,50.7
	c-5.9,18.2,0.2,38.9,16.5,50.7c15.9,11.6,36.8,11.3,52.2,0.8c-0.4-0.3-0.8-0.5-1.2-0.8C237.9,354.4,231.8,333.7,237.7,315.5z"/>
<path class="st3" d="M255.4,367c8.1,5.5,17.5,8.1,26.7,7.8c-9.1-0.2-18-3.2-25.5-8.6C256.2,366.5,255.8,366.8,255.4,367z"/>
<path class="st4" d="M326.4,315.5c15.5-11.2,22.7-31.6,16.5-50.7c-6.2-19.2-24-31.4-43.2-31.4c-3.1-9.7-9.4-17.9-17.7-23.5
	c-8.2,5.6-14.5,13.9-17.7,23.5c-19.1,0-36.9,12.2-43.2,31.4c-6.2,19.2,1,39.5,16.5,50.7c-5.9,18.2,0.2,38.9,16.5,50.7
	c0.4,0.3,0.8,0.6,1.2,0.8c0.4-0.3,0.8-0.5,1.2-0.8c7.5,5.4,16.4,8.4,25.5,8.6c9.1-0.2,18-3.2,25.5-8.6c0.4,0.3,0.8,0.6,1.2,0.8
	c0.4-0.3,0.8-0.5,1.2-0.8C326.3,354.4,332.3,333.7,326.4,315.5z"/>
<path class="st2" d="M253.9,292.8c0-12.3,7-22.9,17.2-28.2c-4.3-2.2-9.3-3.5-14.5-3.5c-17.5,0-31.7,14.2-31.7,31.7
	s14.2,31.7,31.7,31.7c5.2,0,10.2-1.3,14.5-3.5C260.9,315.7,253.9,305,253.9,292.8z"/>
<path class="st4" d="M288.3,292.8c0-12.3-7-22.9-17.2-28.2c-10.2,5.3-17.2,15.9-17.2,28.2s7,22.9,17.2,28.2
	C281.3,315.7,288.3,305,288.3,292.8z"/>
<path d="M475.1,138c22.1-12.8,36.9-36.7,36.9-64c0-40.8-33.2-74-74-74H74C33.2,0,0,33.2,0,74c0,27.3,14.9,51.2,36.9,64
	C14.9,150.8,0,174.7,0,202c0,37.8,28.5,69.1,65.2,73.5v205.1c0,17.3,14.1,31.4,31.4,31.4h320c17.3,0,31.4-14.1,31.4-31.4v-43.9
	c0-5.5-4.5-10-10-10s-10,4.5-10,10v43.9c0,6.3-5.1,11.4-11.4,11.4h-320c-6.3,0-11.4-5.1-11.4-11.4V148H428v195.5c0,5.5,4.5,10,10,10
	s10-4.5,10-10v-68.2c36.1-4.9,64-35.9,64-73.3C512,174.7,497.1,150.8,475.1,138z M20,202c0-26.8,19.6-49.1,45.2-53.3v106.6
	C39.6,251.1,20,228.8,20,202z M75.2,128H74c-29.8,0-54-24.2-54-54s24.2-54,54-54h364c29.8,0,54,24.2,54,54s-24.2,54-54,54H75.2z
	 M448,255.1V148.9c25,4.7,44,26.7,44,53.1S473,250.4,448,255.1z"/>
<path d="M438,382.4c-2.6,0-5.2,1.1-7.1,2.9s-2.9,4.4-2.9,7.1s1.1,5.2,2.9,7.1c1.9,1.9,4.4,2.9,7.1,2.9s5.2-1.1,7.1-2.9
	c1.9-1.9,2.9-4.4,2.9-7.1s-1.1-5.2-2.9-7.1S440.6,382.4,438,382.4z"/>
<path d="M256.6,251.1c-23,0-41.7,18.7-41.7,41.7s18.7,41.7,41.7,41.7c23,0,41.7-18.7,41.7-41.7S279.6,251.1,256.6,251.1z
	 M256.6,314.5c-12,0-21.7-9.7-21.7-21.7s9.7-21.7,21.7-21.7c12,0,21.7,9.7,21.7,21.7S268.5,314.5,256.6,314.5z"/>
<path d="M352.4,261.6c-6.7-20.7-24.6-35.2-45.7-37.8c-9-19.3-28.4-31.8-50.1-31.8c-21.7,0-41.1,12.5-50.1,31.8
	c-21.1,2.6-39,17.2-45.7,37.8s-0.8,42.9,14.7,57.5c-4,20.9,4.3,42.4,21.9,55.2c14.4,10.4,32.4,13.2,48.6,8.2V418
	c-10.3-9-23.7-14.5-38.4-14.5c-5.5,0-10,4.5-10,10s4.5,10,10,10c17.7,0,32.7,12.1,37.1,28.4h-77.8c-5.5,0-10,4.5-10,10s4.5,10,10,10
	h178.3c5.5,0,10-4.5,10-10s-4.5-10-10-10h-77.8c4.4-16.4,19.4-28.4,37.1-28.4c5.5,0,10-4.5,10-10s-4.5-10-10-10
	c-14.7,0-28.2,5.5-38.4,14.5v-35.8c5.6,1.8,11.4,2.8,17.3,2.8c11.4,0,22.8-3.5,32.6-10.6c17.6-12.8,25.9-34.3,21.9-55.2
	C353.2,304.6,359.1,282.3,352.4,261.6z M320.6,307.4c-3.5,2.5-5,7.1-3.6,11.2c4.8,14.6-0.4,30.5-12.9,39.6c-12.4,9-29.2,9-41.6,0
	c-1.8-1.3-3.8-1.9-5.9-1.9c-2.1,0-4.1,0.6-5.9,1.9c-12.4,9-29.2,9-41.6,0c-12.4-9-17.6-24.9-12.9-39.6c1.3-4.1-0.1-8.6-3.6-11.2
	c-12.4-9-17.6-24.9-12.9-39.6c4.8-14.6,18.3-24.5,33.6-24.5h0c4.3,0,8.2-2.8,9.5-6.9c4.8-14.6,18.3-24.4,33.7-24.4
	c15.4,0,28.9,9.8,33.7,24.4c1.3,4.1,5.2,6.9,9.5,6.9h0c15.4,0,28.9,9.8,33.6,24.5C338.2,282.4,333,298.3,320.6,307.4z"/>
<path d="M244.7,44H138.5c-5.5,0-10,4.5-10,10s4.5,10,10,10h106.2c5.5,0,10-4.5,10-10S250.2,44,244.7,44z"/>
<path d="M91.2,44c-2.6,0-5.2,1.1-7.1,2.9s-2.9,4.4-2.9,7.1s1.1,5.2,2.9,7.1s4.4,2.9,7.1,2.9c2.6,0,5.2-1.1,7.1-2.9
	c1.9-1.9,2.9-4.4,2.9-7.1s-1.1-5.2-2.9-7.1C96.4,45.1,93.8,44,91.2,44z"/>
</svg>
