<?xml version="1.0" encoding="UTF-8"?>
<svg width="222px" height="227px" viewBox="0 0 222 227" version="1.1" xmlns="http://www.w3.org/2000/svg" xmlns:xlink="http://www.w3.org/1999/xlink">
    <!-- Generator: Sketch 62 (91390) - https://sketch.com -->
    <title>Mask</title>
    <desc>Created with Sketch.</desc>
    <defs>
        <path d="M10,0 L207.114874,0 C212.58673,-1.55851149e-14 217.042477,4.39786615 217.11402,9.86925374 L219.774492,213.335526 C219.846703,218.857902 215.42847,223.39321 209.906093,223.465419 C207.623206,223.495269 205.398837,222.743052 203.602623,221.333769 C201.878806,219.981287 200.020482,218.486878 198.02765,216.850541 C177.83297,200.268464 174.335485,215.273804 159.638355,220.477297 C144.941225,225.68079 143.244441,198.056297 127.249336,202.272054 C111.254232,206.487812 117.912444,215.868307 101.906177,222.227637 C85.8999102,228.586966 79.6662193,198.46775 69.8099721,199.414052 C56.2937033,200.711756 60.2401652,222.997652 47.5966839,225.317534 C42.2645805,226.295891 37.1446128,222.481279 32.2367807,213.873696 C29.5012128,209.075937 23.3942453,207.404197 18.5964845,210.139763 C17.9055561,210.533713 17.2640934,211.008685 16.6856947,211.55461 L13.3790754,214.67558 C10.192683,217.683074 5.17154614,217.538048 2.16405227,214.351656 C0.774212906,212.879143 7.35339785e-15,210.930939 0,208.906107 L0,10 C-6.76353751e-16,4.4771525 4.4771525,1.01453063e-15 10,0 Z" id="path-1"></path>
    </defs>
    <g id="Welcome" stroke="none" stroke-width="1" fill="none" fill-rule="evenodd">
        <g id="Desktop-Web-Design---1-" transform="translate(-521.000000, -926.000000)">
            <g id="Services" transform="translate(-594.000000, 801.000000)">
                <g id="service-box-2" transform="translate(1116.000000, 126.000000)">
                    <g id="Rectangle">
                        <mask id="mask-2" fill="white">
                            <use xlink:href="#path-1"></use>
                        </mask>
                        <use id="Mask" stroke-opacity="0.592192963" stroke="#CDCDCD" fill="#FFFFFF" xlink:href="#path-1"></use>
                    </g>
                </g>
            </g>
        </g>
    </g>
</svg>