<?xml version="1.0" encoding="UTF-8"?>
<svg width="300px" height="381px" viewBox="0 0 300 381" version="1.1" xmlns="http://www.w3.org/2000/svg" xmlns:xlink="http://www.w3.org/1999/xlink">
    <!-- Generator: Sketch 62 (91390) - https://sketch.com -->
    <title>undraw_taking_notes_tjaf</title>
    <desc>Created with Sketch.</desc>
    <defs>
        <linearGradient x1="5.0615678%" y1="20.4027272%" x2="101.073157%" y2="92.6497324%" id="linearGradient-1">
            <stop stop-color="#FC1A1A" offset="0%"></stop>
            <stop stop-color="#FC1A1A" offset="0%"></stop>
            <stop stop-color="#FA6300" stop-opacity="0.23666958" offset="99.9827739%"></stop>
            <stop stop-color="#FA6300" offset="100%"></stop>
            <stop stop-color="#886853" stop-opacity="0" offset="100%"></stop>
        </linearGradient>
        <path d="M256.212073,47.2424789 C238.36284,63.9007709 215.205316,62.8243062 194.934329,54.1587649 C174.663341,45.4932237 155.990549,30.0594102 136.225113,19.0929256 C120.04643,10.0363127 102.619021,3.98193471 84.6466202,1.17427267 C59.4546587,-2.66960356 31.3150052,2.01301812 13.7593188,28.9425781 C-5.79003469,58.931092 -4.28561103,113.018961 16.8578608,140.563003 C27.613063,154.566015 41.6951208,161.437448 53.9792089,172.372536 C66.2632969,183.307624 77.6259764,201.459511 76.582257,222.562705 C75.6160012,242.10054 64.3511704,257.099283 52.7071758,266.518349 C43.701019,273.784486 32.6115004,281.723414 31.5066256,296.780465 C30.4547522,311.348621 39.7789172,322.763633 48.6872254,329.258303 C77.7319792,350.437747 113.511985,350.231425 142.45889,328.724556 C152.786004,321.05026 162.27325,310.846271 173.101839,304.862921 C201.526884,289.164477 232.854774,304.966082 262.951402,310.747595 C288.428755,315.641024 314.554356,313.106847 339.375308,303.333444 C354.280926,297.466711 369.243622,288.496171 379.717509,271.784056 C387.268167,259.732136 391.973058,244.477733 396.38848,229.416197 C401.101526,213.352951 405.629746,197.177573 409.973141,180.890063 C412.578362,171.112175 415.14689,161.154876 415.8196,150.686256 C417.042709,131.727021 411.897498,113.00999 404.89724,96.9886063 C388.291501,58.9714594 360.294544,32.2616777 329.989988,25.4754645 C299.685432,18.6892513 267.574752,31.9432236 244.05845,60.9404929" id="path-2"></path>
        <filter x="-8.8%" y="-10.9%" width="117.5%" height="121.2%" filterUnits="objectBoundingBox" id="filter-3">
            <feMorphology radius="3.5" operator="erode" in="SourceAlpha" result="shadowSpreadOuter1"></feMorphology>
            <feOffset dx="0" dy="-1" in="shadowSpreadOuter1" result="shadowOffsetOuter1"></feOffset>
            <feGaussianBlur stdDeviation="15.5" in="shadowOffsetOuter1" result="shadowBlurOuter1"></feGaussianBlur>
            <feColorMatrix values="0 0 0 0 0.988235294   0 0 0 0 0.101960784   0 0 0 0 0  0 0 0 0.72 0" type="matrix" in="shadowBlurOuter1"></feColorMatrix>
        </filter>
        <linearGradient x1="5.0615678%" y1="21.7573182%" x2="101.073157%" y2="90.6977638%" id="linearGradient-4">
            <stop stop-color="#FC1A1A" offset="0%"></stop>
            <stop stop-color="#FC1A1A" offset="0%"></stop>
            <stop stop-color="#FA6300" stop-opacity="0.23666958" offset="99.9827739%"></stop>
            <stop stop-color="#FA6300" offset="100%"></stop>
            <stop stop-color="#886853" stop-opacity="0" offset="100%"></stop>
        </linearGradient>
        <path d="M255.27829,56.8191108 C238.330101,72.2702803 216.341586,71.2718202 197.093894,63.2342167 C177.846201,55.1966132 160.116026,40.8811921 141.348364,30.7093802 C125.986394,22.3090437 109.438734,16.6933887 92.3735937,14.0891804 C68.4533418,10.523846 41.7341997,14.8671472 25.0647378,39.8452898 C6.50225072,67.660723 7.93072991,117.829181 28.006863,143.377278 C38.2191344,156.365579 51.590319,162.739082 63.2542969,172.881773 C74.9182747,183.024463 85.7073574,199.860995 84.7163258,219.434973 C83.7988473,237.557023 73.1026738,251.4689 62.0464771,260.205425 C53.494958,266.945031 42.9652468,274.308674 41.9161469,288.274634 C40.9173728,301.787127 49.7708469,312.374964 58.2294568,318.399006 C85.8080091,338.043708 119.781812,337.852336 147.267456,317.903936 C157.073249,310.785748 166.081572,301.321179 176.363525,295.771405 C203.353652,281.210529 233.100086,295.867091 261.677413,301.229653 C285.86865,305.768486 310.675411,303.417945 334.243382,294.35276 C348.396552,288.911152 362.60392,280.590652 372.549077,265.089559 C379.718572,253.910967 384.185957,239.761956 388.378485,225.791835 C392.853612,210.892592 397.153244,195.889343 401.277381,180.782088 C403.751089,171.712742 406.189956,162.476987 406.828707,152.766963 C407.990072,135.181585 403.104596,117.82086 396.457715,102.960446 C380.690247,67.6981653 354.106598,42.923875 325.331839,36.6294163 C296.557081,30.3349577 266.067373,42.6284972 243.738192,69.5245151" id="path-5"></path>
        <filter x="-6.6%" y="-8.4%" width="113.2%" height="116.3%" filterUnits="objectBoundingBox" id="filter-6">
            <feMorphology radius="1" operator="erode" in="SourceAlpha" result="shadowSpreadOuter1"></feMorphology>
            <feOffset dx="0" dy="-1" in="shadowSpreadOuter1" result="shadowOffsetOuter1"></feOffset>
            <feGaussianBlur stdDeviation="9.5" in="shadowOffsetOuter1" result="shadowBlurOuter1"></feGaussianBlur>
            <feColorMatrix values="0 0 0 0 0.988235294   0 0 0 0 0.101960784   0 0 0 0 0  0 0 0 0.26 0" type="matrix" in="shadowBlurOuter1"></feColorMatrix>
        </filter>
        <linearGradient x1="5.0615678%" y1="23.2370851%" x2="101.073157%" y2="88.5654166%" id="linearGradient-7">
            <stop stop-color="#FC1A1A" offset="0%"></stop>
            <stop stop-color="#FC1A1A" offset="0%"></stop>
            <stop stop-color="#FA6300" stop-opacity="0.23666958" offset="99.9827739%"></stop>
            <stop stop-color="#FA6300" offset="100%"></stop>
            <stop stop-color="#886853" stop-opacity="0" offset="100%"></stop>
        </linearGradient>
        <linearGradient x1="49.9944184%" y1="100%" x2="49.9944184%" y2="0%" id="linearGradient-8">
            <stop stop-color="#808080" stop-opacity="0.25" offset="0%"></stop>
            <stop stop-color="#808080" stop-opacity="0.12" offset="54%"></stop>
            <stop stop-color="#808080" stop-opacity="0.1" offset="100%"></stop>
        </linearGradient>
        <linearGradient x1="49.9936241%" y1="100.004506%" x2="49.9936241%" y2="1.2807187e-14%" id="linearGradient-9">
            <stop stop-color="#808080" stop-opacity="0.25" offset="0%"></stop>
            <stop stop-color="#808080" stop-opacity="0.12" offset="54%"></stop>
            <stop stop-color="#808080" stop-opacity="0.1" offset="100%"></stop>
        </linearGradient>
        <linearGradient x1="50.0026011%" y1="100%" x2="50.0026011%" y2="-0.0182621717%" id="linearGradient-10">
            <stop stop-color="#808080" stop-opacity="0.25" offset="0%"></stop>
            <stop stop-color="#808080" stop-opacity="0.12" offset="54%"></stop>
            <stop stop-color="#808080" stop-opacity="0.1" offset="100%"></stop>
        </linearGradient>
        <linearGradient x1="49.9975438%" y1="100%" x2="49.9975438%" y2="0%" id="linearGradient-11">
            <stop stop-color="#808080" stop-opacity="0.25" offset="0%"></stop>
            <stop stop-color="#808080" stop-opacity="0.12" offset="54%"></stop>
            <stop stop-color="#808080" stop-opacity="0.1" offset="100%"></stop>
        </linearGradient>
        <linearGradient x1="50.0024608%" y1="99.9961641%" x2="50.0024608%" y2="0.00165012633%" id="linearGradient-12">
            <stop stop-color="#808080" stop-opacity="0.25" offset="0%"></stop>
            <stop stop-color="#808080" stop-opacity="0.12" offset="54%"></stop>
            <stop stop-color="#808080" stop-opacity="0.1" offset="100%"></stop>
        </linearGradient>
        <linearGradient x1="50%" y1="100.025363%" x2="50%" y2="0%" id="linearGradient-13">
            <stop stop-color="#808080" stop-opacity="0.25" offset="0%"></stop>
            <stop stop-color="#808080" stop-opacity="0.12" offset="54%"></stop>
            <stop stop-color="#808080" stop-opacity="0.1" offset="100%"></stop>
        </linearGradient>
        <linearGradient x1="49.9693811%" y1="100.000101%" x2="49.9693811%" y2="-0.0172476432%" id="linearGradient-14">
            <stop stop-color="#808080" stop-opacity="0.25" offset="0%"></stop>
            <stop stop-color="#808080" stop-opacity="0.12" offset="54%"></stop>
            <stop stop-color="#808080" stop-opacity="0.1" offset="100%"></stop>
        </linearGradient>
    </defs>
    <g id="Welcome" stroke="none" stroke-width="1" fill="none" fill-rule="evenodd">
        <g id="Desktop-Web-Design---1-" transform="translate(0.000000, -3148.000000)">
            <g id="blog" transform="translate(-134.000000, 3032.000000)">
                <g id="undraw_taking_notes_tjaf" transform="translate(0.000000, 134.000000)">
                    <ellipse id="Oval" fill="#000000" fill-rule="nonzero" opacity="0.1" cx="308.5" cy="307.5" rx="32.5" ry="5.5"></ellipse>
                    <g id="Path" opacity="0.158412388" fill-rule="nonzero">
                        <use fill="black" fill-opacity="1" filter="url(#filter-3)" xlink:href="#path-2"></use>
                        <use fill="url(#linearGradient-1)" xlink:href="#path-2"></use>
                    </g>
                    <g id="Path" opacity="0.568684896" fill-rule="nonzero">
                        <use fill="black" fill-opacity="1" filter="url(#filter-6)" xlink:href="#path-5"></use>
                        <use fill="url(#linearGradient-4)" xlink:href="#path-5"></use>
                    </g>
                    <path d="M255.265036,67.8480039 C239.432423,81.8989111 218.891254,80.9909365 200.910498,73.6817408 C182.929742,66.3725452 166.366617,53.3544591 148.834295,44.1044676 C134.483492,36.4654116 119.025045,31.3586754 103.08318,28.9904735 C80.7374256,25.7482474 55.7770119,29.697937 40.2047804,52.4124354 C22.8641279,77.707095 24.1985806,123.329036 42.9532467,146.561837 C52.4933179,158.373073 64.984374,164.168978 75.8805963,173.392487 C86.7768186,182.615996 96.8557339,197.926718 95.9299347,215.726803 C95.0728472,232.206543 85.0807256,244.857656 74.7522786,252.802434 C66.7636443,258.931262 56.927028,265.627575 55.9469828,278.32787 C55.0139508,290.615793 63.2846646,300.244108 71.1865052,305.722221 C96.9497604,323.586622 128.687313,323.412593 154.363775,305.272017 C163.524124,298.798915 171.939494,290.192072 181.54466,285.145246 C206.758222,271.90395 234.546663,285.232261 261.24295,290.108841 C283.841853,294.236342 307.015763,292.098819 329.032425,283.855166 C342.253994,278.906704 355.526193,271.340249 364.816733,257.243943 C371.514311,247.07841 375.68764,234.211653 379.604205,221.507575 C383.784767,207.958576 387.801385,194.314996 391.65406,180.576836 C393.964941,172.3294 396.243275,163.930635 396.839982,155.100582 C397.924903,139.108879 393.361002,123.32147 387.151638,109.807781 C372.422028,77.741144 347.588189,55.2120238 320.707465,49.4880005 C293.826741,43.7639772 265.343951,54.9434147 244.484538,79.4019809" id="Path" fill="url(#linearGradient-7)" fill-rule="nonzero" opacity="0.743164062"></path>
                    <g id="Group" opacity="0.35" transform="translate(220.000000, 101.000000)" fill="#FF6366" fill-rule="nonzero">
                        <path d="M50.3076892,2.28687898 L50.3076892,0.126687898 L18.1578884,0.126687898 C16.679243,0.126687898 17.5811554,2.29987261 17.5811554,2.29987261 L0.113505976,2.29987261 L0.113505976,50.7498726 L76.8067331,50.7498726 L76.8067331,2.28687898 L50.3076892,2.28687898 Z" id="Path" opacity="0.2"></path>
                    </g>
                    <path d="M370,140 C370,140 379.715767,122.193917 394.358795,117.06454 C400.509399,114.953058 405.831656,110.833822 409.525999,105.325668 C411.26082,102.698163 412.758457,99.9112107 414,97" id="Path" stroke="#535461" stroke-width="2"></path>
                    <path d="M422.687906,93.5560144 C420.977158,95.2489848 413,97 413,97 C413,97 414.954689,88.9382359 416.668605,87.2420408 C418.38153,85.5501328 421.117596,85.5920016 422.77978,87.3355572 C424.441964,89.0791129 424.400831,91.8641064 422.687906,93.5560144 L422.687906,93.5560144 Z" id="Path" fill="#FF6366" fill-rule="nonzero"></path>
                    <path d="M416.895565,108.941061 C414.807312,109.481872 408,106.122957 408,106.122957 C408,106.122957 413.306821,99.6369028 415.395074,99.0960917 C416.745859,98.7471249 418.137032,99.3628866 419.044551,100.711425 C419.95207,102.059964 420.238062,103.936405 419.794796,105.63391 C419.351531,107.331415 418.24635,108.592094 416.895565,108.941061 L416.895565,108.941061 Z" id="Path" fill="#FF6366" fill-rule="nonzero"></path>
                    <path d="M403.752525,123.723133 C401.689092,122.816993 397,115.435262 397,115.435262 C397,115.435262 404.277077,113.31725 406.34051,114.227075 C407.67512,114.814663 408.661717,116.262586 408.928659,118.025426 C409.195602,119.788265 408.702335,121.598204 407.634667,122.773455 C406.566999,123.948706 405.087135,124.310722 403.752525,123.723133 L403.752525,123.723133 Z" id="Path" fill="#FF6366" fill-rule="nonzero"></path>
                    <path d="M387.534153,131.921731 C385.443052,131.476994 380,125.228626 380,125.228626 C380,125.228626 386.692647,121.589871 388.786561,122.038283 C390.139949,122.330456 391.271178,123.543372 391.754123,125.220138 C392.237069,126.896905 391.998361,128.782781 391.127919,130.167375 C390.257477,131.55197 388.887541,132.224929 387.534153,131.932757 L387.534153,131.921731 Z" id="Path" fill="#FF6366" fill-rule="nonzero"></path>
                    <path d="M401.001839,99.1964272 C401.001839,101.454982 405.994506,108 405.994506,108 C405.994506,108 410.998161,101.457978 410.998161,99.1994226 C411.04738,97.7128011 410.105647,96.3215527 408.538962,95.5663797 C406.972278,94.8112068 405.027722,94.8112068 403.461038,95.5663797 C401.894353,96.3215527 400.95262,97.7128011 401.001839,99.1994226 L401.001839,99.1964272 Z" id="Path" fill="#FF6366" fill-rule="nonzero"></path>
                    <path d="M384.29273,109.627808 C385.116496,111.836394 392.274101,117 392.274101,117 C392.274101,117 394.650207,109.342136 393.826441,107.13355 C393.361902,105.637723 391.953461,104.478001 390.1622,104.116384 C388.370939,103.754767 386.487875,104.250005 385.263166,105.404809 C384.038457,106.559613 383.671075,108.186369 384.307375,109.637024 L384.29273,109.627808 Z" id="Path" fill="#FF6366" fill-rule="nonzero"></path>
                    <path d="M370.079734,123.615009 C370.445573,126.18205 376.459963,133 376.459963,133 C376.459963,133 380.341513,124.934613 379.975674,122.367572 C379.847411,120.623406 378.697157,119.09098 376.991313,118.391656 C375.285469,117.692331 373.307145,117.942172 371.858503,119.039873 C370.409861,120.137574 369.731326,121.900955 370.098026,123.615009 L370.079734,123.615009 Z" id="Path" fill="#FF6366" fill-rule="nonzero"></path>
                    <path d="M422.687906,93.5560144 C420.977158,95.2489848 413,97 413,97 C413,97 414.954689,88.9382359 416.668605,87.2420408 C418.38153,85.5501328 421.117596,85.5920016 422.77978,87.3355572 C424.441964,89.0791129 424.400831,91.8641064 422.687906,93.5560144 L422.687906,93.5560144 Z" id="Path" fill="#000000" fill-rule="nonzero" opacity="0.25"></path>
                    <path d="M416.895565,108.941061 C414.807312,109.481872 408,106.122957 408,106.122957 C408,106.122957 413.306821,99.6369028 415.395074,99.0960917 C416.745859,98.7471249 418.137032,99.3628866 419.044551,100.711425 C419.95207,102.059964 420.238062,103.936405 419.794796,105.63391 C419.351531,107.331415 418.24635,108.592094 416.895565,108.941061 L416.895565,108.941061 Z" id="Path" fill="#000000" fill-rule="nonzero" opacity="0.25"></path>
                    <path d="M403.752525,123.723133 C401.689092,122.816993 397,115.435262 397,115.435262 C397,115.435262 404.277077,113.31725 406.34051,114.227075 C407.67512,114.814663 408.661717,116.262586 408.928659,118.025426 C409.195602,119.788265 408.702335,121.598204 407.634667,122.773455 C406.566999,123.948706 405.087135,124.310722 403.752525,123.723133 L403.752525,123.723133 Z" id="Path" fill="#000000" fill-rule="nonzero" opacity="0.25"></path>
                    <path d="M387.534153,131.921731 C385.443052,131.476994 380,125.228626 380,125.228626 C380,125.228626 386.692647,121.589871 388.786561,122.038283 C390.139949,122.330456 391.271178,123.543372 391.754123,125.220138 C392.237069,126.896905 391.998361,128.782781 391.127919,130.167375 C390.257477,131.55197 388.887541,132.224929 387.534153,131.932757 L387.534153,131.921731 Z" id="Path" fill="#000000" fill-rule="nonzero" opacity="0.25"></path>
                    <path d="M401.001839,99.1964272 C401.001839,101.454982 405.994506,108 405.994506,108 C405.994506,108 410.998161,101.457978 410.998161,99.1994226 C411.04738,97.7128011 410.105647,96.3215527 408.538962,95.5663797 C406.972278,94.8112068 405.027722,94.8112068 403.461038,95.5663797 C401.894353,96.3215527 400.95262,97.7128011 401.001839,99.1994226 L401.001839,99.1964272 Z" id="Path" fill="#000000" fill-rule="nonzero" opacity="0.25"></path>
                    <path d="M384.29273,109.627808 C385.116496,111.836394 392.274101,117 392.274101,117 C392.274101,117 394.650207,109.342136 393.826441,107.13355 C393.361902,105.637723 391.953461,104.478001 390.1622,104.116384 C388.370939,103.754767 386.487875,104.250005 385.263166,105.404809 C384.038457,106.559613 383.671075,108.186369 384.307375,109.637024 L384.29273,109.627808 Z" id="Path" fill="#000000" fill-rule="nonzero" opacity="0.25"></path>
                    <path d="M370.079734,123.615009 C370.445573,126.18205 376.459963,133 376.459963,133 C376.459963,133 380.341513,124.934613 379.975674,122.367572 C379.847411,120.623406 378.697157,119.09098 376.991313,118.391656 C375.285469,117.692331 373.307145,117.942172 371.858503,119.039873 C370.409861,120.137574 369.731326,121.900955 370.098026,123.615009 L370.079734,123.615009 Z" id="Path" fill="#000000" fill-rule="nonzero" opacity="0.25"></path>
                    <path d="M371,140 C371,140 372.876677,119.561447 384.057785,108.691853 C388.781395,104.165227 391.983765,98.1427241 393.183051,91.5305164 C393.731877,88.3868362 394.00532,85.1965467 394,82" id="Path" stroke="#535461" stroke-width="2"></path>
                    <path d="M392.954982,80 C392.954982,80 391.306036,72.5579597 392.341677,70.5053876 C393.010823,69.1796617 394.514955,68.2396707 396.287479,68.0395002 C398.060003,67.8393297 399.831631,68.4093903 400.935009,69.5349457 C402.038386,70.660501 402.305883,72.1705526 401.636736,73.4962784 C400.601096,75.5547151 392.954982,80 392.954982,80 Z" id="Path" fill="#FF6366" fill-rule="nonzero"></path>
                    <path d="M402.309166,89.117551 C400.510406,90.5383908 393,91 393,91 C393,91 395.920065,83.2312148 397.724665,81.8136489 C398.888397,80.8954933 400.400631,80.7431406 401.691722,81.4139804 C402.982814,82.0848203 403.856615,83.4769362 403.983973,85.0659316 C404.111332,86.654927 403.472899,88.1993956 402.309166,89.117551 L402.309166,89.117551 Z" id="Path" fill="#FF6366" fill-rule="nonzero"></path>
                    <path d="M392.504577,110.991036 C390.404992,111.222125 384,106.908472 384,106.908472 C384,106.908472 389.767568,101.248638 391.867153,101.01755 C393.225041,100.868155 394.540528,101.680577 395.318082,103.148784 C396.095635,104.61699 396.217128,106.517926 395.636793,108.135527 C395.056459,109.753128 393.862465,110.841642 392.504577,110.991036 L392.504577,110.991036 Z" id="Path" fill="#FF6366" fill-rule="nonzero"></path>
                    <path d="M385.090508,126.889306 C383.011129,127.589101 376,124.742039 376,124.742039 C376,124.742039 381.057254,117.858265 383.130928,117.162153 C385.21114,116.465461 387.334874,118.078177 387.874422,120.764256 C388.413969,123.450335 387.165014,126.192613 385.084803,126.889306 L385.090508,126.889306 Z" id="Path" fill="#FF6366" fill-rule="nonzero"></path>
                    <path d="M383.441907,88.6848236 C384.555863,90.723791 392.342598,95 392.342598,95 C392.342598,95 393.668389,87.4537489 392.554433,85.4147815 C391.445018,83.3718014 388.501663,82.4443503 385.980266,83.3432615 C383.458868,84.2421728 382.31423,86.6270469 383.423645,88.670027 L383.441907,88.6848236 Z" id="Path" fill="#FF6366" fill-rule="nonzero"></path>
                    <path d="M373.026516,105.973205 C374.540262,107.715687 382,110 382,110 C382,110 380.737536,102.174226 379.232873,100.428665 C377.72804,98.6859012 375.118791,98.5136099 373.404953,100.043842 C371.691115,101.574074 371.521683,104.227362 373.026516,105.970126 L373.026516,105.973205 Z" id="Path" fill="#FF6366" fill-rule="nonzero"></path>
                    <path d="M365.650419,122.877967 C367.035383,124.715031 374.998931,128 374.998931,128 C374.998931,128 375.085492,120.628851 373.700527,118.791786 C372.308821,117.005585 369.444858,116.466212 367.254133,117.577731 C365.063408,118.68925 364.349382,121.044005 365.646956,122.877967 L365.650419,122.877967 Z" id="Path" fill="#FF6366" fill-rule="nonzero"></path>
                    <path d="M256,106 C256,106 243.819421,90.1352652 244.584611,74.2147264 C244.9485,67.540511 243.243299,60.9222441 239.724872,55.3529911 C238.034326,52.7233156 236.11802,50.2620239 234,48" id="Path" stroke="#535461" stroke-width="2"></path>
                    <path d="M235.628789,37.2690081 C236.689395,39.1470895 235.140154,46 235.140154,46 C235.140154,46 227.443191,41.9656028 226.382586,40.0875214 C225.324041,38.2105089 226.53745,36.0585667 229.09281,35.2810241 C231.648171,34.5034814 234.57782,35.3947779 235.636365,37.2717904 L235.628789,37.2690081 Z" id="Path" fill="#FF6366" fill-rule="nonzero"></path>
                    <path d="M246.90416,46.5771994 C246.40397,48.6582501 240.026547,54 240.026547,54 C240.026547,54 236.536585,47.26412 237.051932,45.1888661 C237.354936,43.8270896 238.592773,42.6954737 240.291742,42.2270711 C241.990711,41.7586684 243.887782,42.0259956 245.256976,42.9267503 C246.626169,43.827505 247.25551,45.2222356 246.90416,46.5771994 L246.90416,46.5771994 Z" id="Path" fill="#FF6366" fill-rule="nonzero"></path>
                    <path d="M254.100576,68.8579714 C252.583283,70.629928 245,73 245,73 C245,73 246.208745,65.1093555 247.726037,63.3373988 C249.268257,61.6822611 251.834498,61.5454242 253.542155,63.0272722 C255.249811,64.5091202 255.490589,67.0817957 254.087852,68.8579714 L254.100576,68.8579714 Z" id="Path" fill="#FF6366" fill-rule="nonzero"></path>
                    <path d="M163.348431,203.837436 C161.997275,205.673666 154.005331,209 154.005331,209 C154.005331,209 153.850811,201.666812 155.20556,199.842315 C156.571859,198.034513 159.46565,197.460431 161.696014,198.55471 C163.926379,199.648989 164.663114,202.00431 163.348431,203.837436 L163.348431,203.837436 Z" id="Path" fill="#FF6366" fill-rule="nonzero"></path>
                    <path d="M233.240537,60.6719192 C235.137722,61.6965376 242,59.9939189 242,59.9939189 C242,59.9939189 237.864751,52.3378482 235.97036,51.3094208 C234.089859,50.3691669 232.002139,51.6417119 231.262293,54.1791669 C230.522448,56.7166219 231.399669,59.5957337 233.240537,60.6719192 L233.240537,60.6719192 Z" id="Path" fill="#FF6366" fill-rule="nonzero"></path>
                    <path d="M236.533733,79.9930866 C238.631569,80.1974289 245,75.8040694 245,75.8040694 C245,75.8040694 239.196371,70.2187132 237.098535,70.0143709 C235.741124,69.8791773 234.4319,70.7052196 233.664036,72.1813356 C232.896172,73.6574516 232.786324,75.5593841 233.375872,77.1706936 C233.965419,78.7820031 235.164795,79.8578932 236.522207,79.9930866 L236.533733,79.9930866 Z" id="Path" fill="#FF6366" fill-rule="nonzero"></path>
                    <path d="M146.945658,217.900245 C149.024955,218.573577 156,215.617763 156,215.617763 C156,215.617763 150.901609,208.812165 148.822312,208.150246 C146.741307,207.478987 144.634216,209.119991 144.115992,211.81553 C143.597769,214.511069 144.864653,217.240399 146.945658,217.911657 L146.945658,217.900245 Z" id="Path" fill="#FF6366" fill-rule="nonzero"></path>
                    <g id="flovers" transform="translate(176.000000, 295.000000)" fill-rule="nonzero">
                        <path d="M30.0580718,0 C30.0580718,0 32.2602751,3.0556449 29.0421143,7.63911225 C25.8239535,12.2225796 23.16861,16.1276938 24.2422924,19 C24.2422924,19 29.0998391,10.4441943 33.0511057,10.3311354 C37.0023722,10.2180766 34.4076398,5.13959472 30.0580718,0 Z" id="Path" fill="#FF6366"></path>
                        <path d="M30.0017477,0 C30.1959109,0.294517066 30.349228,0.616312216 30.4571332,0.955801993 C34.3571015,5.75008036 36.4355277,10.2237223 32.6873546,10.3367085 C29.184389,10.4405336 25.0041835,16.9723562 24,18.6243973 C24.0332958,18.7517945 24.0732508,18.877184 24.1196847,19 C24.1196847,19 29.0325938,10.4496946 33.0288937,10.3367085 C37.0251936,10.2237223 34.4008886,5.13629058 30.0017477,0 Z" id="Path" fill="#000000" opacity="0.1"></path>
                        <path d="M34,3.04388088 C34,4.67997196 33.7727273,6 33.5,6 C33.2272727,6 33,4.67997196 33,3.04388088 C33,1.40778979 33.2784091,2.18400346 33.5681818,2.18400346 C33.8579545,2.18400346 34,1.41243778 34,3.04388088 Z" id="Path" fill="#FFD037"></path>
                        <path d="M35.0483004,4.00935826 C33.487613,4.71304691 32.1245451,5.13609782 32.0080002,4.96017566 C31.8914554,4.7842535 33.0619709,4.06381036 34.6226583,3.36012172 C36.1833457,2.65643307 35.5702185,3.16744506 35.6867634,3.36012172 C35.8033082,3.55279837 36.6140549,3.30566962 35.0483004,4.00935826 Z" id="Path" fill="#FFD037"></path>
                        <path d="M17.9419282,0 C17.9419282,0 15.7397249,3.0556449 18.9578857,7.63911225 C22.1760465,12.2225796 24.83139,16.1276938 23.7577076,19 C23.7577076,19 18.9001609,10.4441943 14.9488943,10.3311354 C10.9976278,10.2180766 13.5923602,5.13959472 17.9419282,0 Z" id="Path" fill="#FF6366"></path>
                        <path d="M17.9982523,0 C17.8026534,0.293628426 17.6492293,0.61564799 17.5428668,0.955801993 C13.6399794,5.75008036 11.5644723,10.2237223 15.3126454,10.3367085 C18.815611,10.4405336 22.9958165,16.9723562 24,18.6243973 C23.9649703,18.7495982 23.9270216,18.8747991 23.8803153,19 C23.8803153,19 18.9674062,10.4496946 14.9711063,10.3367085 C10.9748064,10.2237223 13.5991114,5.13629058 17.9982523,0 Z" id="Path" fill="#000000" opacity="0.1"></path>
                        <path d="M11,3.04388088 C11,4.67997196 11.2272727,6 11.5,6 C11.7727273,6 12,4.67997196 12,3.04388088 C12,1.40778979 11.7215909,2.18400346 11.4318182,2.18400346 C11.1420455,2.18400346 11,1.41243778 11,3.04388088 Z" id="Path" fill="#FFD037"></path>
                        <path d="M10.9503331,4.00935826 C12.5171114,4.71304691 13.8810704,5.13609782 13.992621,4.96017566 C14.1041716,4.7842535 12.9379612,4.06381036 11.3762534,3.36012172 C9.81454561,2.65643307 10.4280737,3.16744506 10.3114526,3.36012172 C10.1948316,3.55279837 9.38862531,3.30566962 10.9503331,4.00935826 Z" id="Path" fill="#FFD037"></path>
                        <ellipse id="Oval" fill="#000000" opacity="0.1" cx="24.5" cy="42" rx="24.5" ry="4"></ellipse>
                        <path d="M34.9945958,15.5787054 L34.8743472,16.6323049 L34.7034676,18.122928 L34.6338499,18.7462795 L34.4661348,20.2369026 L34.3901883,20.8602541 L34.2224731,22.3508772 L32.2890018,39.2897762 C32.1181222,40.8041137 29.8080829,42 27.0202136,42 L16.9826182,42 C14.1947489,42 11.887874,40.8210526 11.71383,39.2897762 L9.78035875,22.3508772 L9.60947913,20.8602541 L9.53986151,20.2369026 L9.36898189,18.7462795 L9.29619983,18.122928 L9.12848465,16.6323049 L9.00507159,15.5787054 C8.91013847,14.7215971 10.1600912,14 11.7359811,14 L32.2668508,14 C33.8427406,14 35.0926934,14.7215971 34.9945958,15.5787054 Z" id="Path" fill="#65617D"></path>
                        <polygon id="Path" fill="#9D9CB5" points="35 15 34.8274336 17 9.1693707 17 9 15"></polygon>
                        <polygon id="Path" fill="#9D9CB5" points="35 19 34.830933 21 10.1721979 21 10 19"></polygon>
                        <polygon id="Path" fill="#9D9CB5" points="35 20 34.8308007 22 10.1723918 22 10 20"></polygon>
                    </g>
                    <path d="M360.670518,97.6331502 L360.412648,97.6331502 C360.817872,97.1459279 361.026624,96.6587055 360.992856,96.2267017 L358.659745,93.7581084 L359.550011,91.6468116 L356.550737,91.6468116 L357.106385,90 L355.328924,90 L335.663262,96.93155 C335.663262,96.93155 335.641773,97.2206353 335.663262,97.6331502 L323,97.6331502 L323,158 L378,158 L378,97.6331502 L360.670518,97.6331502 Z" id="Path" fill="url(#linearGradient-8)" fill-rule="nonzero"></path>
                    <rect id="Rectangle" fill="#F6F7F9" fill-rule="nonzero" x="322" y="98" width="55" height="59"></rect>
                    <path d="M360,98 C357.292922,102.316269 339.211199,108 339.211199,108 L339.324533,103.501403 L335.979544,103.501403 C336.167893,102.611497 335.79039,101.693912 335.053438,101.250351 C334.081999,100.671809 333.988093,98.7959327 334.001046,98 L360,98 Z" id="Path" fill="#000000" fill-rule="nonzero" opacity="0.1"></path>
                    <path d="M354.184368,92.0158009 L334.016612,98.6521825 C334.016612,98.6521825 333.786452,101.243532 335.039545,101.91665 C335.765404,102.317921 336.137496,103.143645 335.953791,103.945487 L339.255945,103.945487 L339.144062,108 C339.144062,108 360.337947,101.91665 359.995904,97.9759036 L357.604799,95.6089275 L358.515848,93.5800909 L355.43746,93.5800909 L356.009663,92 L354.184368,92.0158009 Z" id="Path" fill="#9D9CB5" fill-rule="nonzero"></path>
                    <g id="Group" opacity="0.35" transform="translate(333.000000, 117.000000)" fill="#FF6366" fill-rule="nonzero">
                        <rect id="Rectangle" opacity="0.2" x="0.284955752" y="0.005" width="34.4486726" height="1.56"></rect>
                    </g>
                    <g id="Group" opacity="0.35" transform="translate(333.000000, 122.000000)" fill="#FF6366" fill-rule="nonzero">
                        <rect id="Rectangle" opacity="0.2" x="0.284955752" y="0.23" width="34.4486726" height="1.56"></rect>
                    </g>
                    <g id="Group" opacity="0.35" transform="translate(333.000000, 127.000000)" fill="#FF6366" fill-rule="nonzero">
                        <rect id="Rectangle" opacity="0.2" x="0.284955752" y="0.36" width="34.4486726" height="1.248"></rect>
                    </g>
                    <g id="Group" opacity="0.35" transform="translate(333.000000, 132.000000)" fill="#FF6366" fill-rule="nonzero">
                        <rect id="Rectangle" opacity="0.2" x="0.284955752" y="0.17" width="34.4486726" height="1.56"></rect>
                    </g>
                    <g id="Group" opacity="0.35" transform="translate(333.000000, 139.000000)" fill="#FF6366" fill-rule="nonzero">
                        <rect id="Rectangle" opacity="0.2" x="0.284955752" y="0.39" width="34.4486726" height="1.56"></rect>
                    </g>
                    <g id="Group" opacity="0.35" transform="translate(333.000000, 144.000000)" fill="#FF6366" fill-rule="nonzero">
                        <rect id="Rectangle" opacity="0.2" x="0.284955752" y="0.115" width="34.4486726" height="1.56"></rect>
                    </g>
                    <path d="M178.412395,93.6016583 L178.283856,93.6016583 C179.250956,90.9736842 180.144606,88.4105984 180.10482,87.9206921 C180.019128,86.9473684 178.179801,89.0627253 178.094109,88.5338861 C178.008416,88.0050469 178.094109,86 177.258607,86 C176.423106,86 175.918133,87.0414564 175.422341,87.0414564 C174.926549,87.0414564 172.909717,86.6910598 172.909717,86.6910598 L170.342005,93.6016583 L151,93.6016583 L151,158 L199,158 L199,93.6016583 L178.412395,93.6016583 Z" id="Path" fill="url(#linearGradient-9)" fill-rule="nonzero"></path>
                    <rect id="Rectangle" fill="#F6F7F9" fill-rule="nonzero" x="153" y="94" width="47" height="64"></rect>
                    <path d="M178,94 C177,96.7038241 175.873065,99.5526685 175.616099,100.232653 C175.117647,101.521723 174.789474,100.835293 174.20743,100.664491 C173.625387,100.49369 172.885449,100.835293 172.55418,100.664491 C172.22291,100.49369 170.278638,100.664491 170.278638,100.664491 C170.300369,100.347999 170.300369,100.030295 170.278638,99.7138022 C170.235294,99.3721987 168,99.7138022 168,99.7138022 L170.130031,94 L178,94 Z" id="Path" fill="#000000" fill-rule="nonzero" opacity="0.1"></path>
                    <path d="M173.291521,85.7193663 L169,98.6337047 C169,98.6337047 171.106376,98.2671705 171.144302,98.6337047 C171.166327,98.968911 171.166327,99.3056114 171.144302,99.6408176 C171.144302,99.6408176 172.979358,99.4558377 173.291521,99.6408176 C173.603685,99.8257975 174.303865,99.4558377 174.849423,99.6408176 C175.39498,99.8257975 175.707143,100.555441 176.176848,99.1817934 C176.646552,97.8081462 180.077435,88.0076364 179.998665,87.0005235 C179.919894,85.9934106 178.204453,88.1926163 178.125683,87.6411021 C178.046912,87.0895879 178.125683,85 177.346732,85 C176.567782,85 176.098077,86.0859006 175.63129,86.0859006 C175.164504,86.0859006 173.291521,85.7193663 173.291521,85.7193663 Z" id="Path" fill="#9D9CB5" fill-rule="nonzero"></path>
                    <g id="Group" opacity="0.35" transform="translate(159.000000, 109.000000)" fill="#FF6366" fill-rule="nonzero">
                        <rect id="Rectangle" opacity="0.2" x="0.00910714286" y="0.02" width="33.7632143" height="1.56"></rect>
                    </g>
                    <g id="Group" opacity="0.35" transform="translate(159.000000, 114.000000)" fill="#FF6366" fill-rule="nonzero">
                        <rect id="Rectangle" opacity="0.2" x="0.00910714286" y="0.405" width="33.7632143" height="1.56"></rect>
                    </g>
                    <g id="Group" opacity="0.35" transform="translate(159.000000, 117.000000)" fill="#FF6366" fill-rule="nonzero">
                        <rect id="Rectangle" opacity="0.2" x="0.00910714286" y="0.285" width="33.7632143" height="1.56"></rect>
                    </g>
                    <g id="Group" opacity="0.35" transform="translate(159.000000, 121.000000)" fill="#FF6366" fill-rule="nonzero">
                        <rect id="Rectangle" opacity="0.2" x="0.00910714286" y="0.17" width="33.7632143" height="1.56"></rect>
                    </g>
                    <g id="Group" opacity="0.35" transform="translate(159.000000, 125.000000)" fill="#FF6366" fill-rule="nonzero">
                        <rect id="Rectangle" opacity="0.2" x="0.00910714286" y="0.05" width="33.7632143" height="1.56"></rect>
                    </g>
                    <g id="Group" opacity="0.35" transform="translate(159.000000, 128.000000)" fill="#FF6366" fill-rule="nonzero">
                        <rect id="Rectangle" opacity="0.2" x="0.00910714286" y="0.43" width="33.7632143" height="1.56"></rect>
                    </g>
                    <path d="M353.098892,187.499982 L352.972169,187.499982 C354.14285,184.212791 355.223014,181.001205 355.171721,180.399649 C355.072153,179.19325 352.845446,181.82629 352.757946,181.168852 C352.670447,180.511414 352.757946,178 351.747178,178 C350.73641,178 350.129948,179.314876 349.523487,179.314876 C348.917026,179.314876 346.488165,178.874393 346.488165,178.874393 L343.368361,187.499982 L320,187.499982 L320,268 L378,268 L378,187.499982 L353.098892,187.499982 Z" id="Path" fill="url(#linearGradient-10)" fill-rule="nonzero"></path>
                    <rect id="Rectangle" fill="#F6F7F9" fill-rule="nonzero" x="321" y="188" width="57" height="79"></rect>
                    <path d="M355,188 C353.809068,191.869225 352.473048,195.919466 352.161713,196.892429 C351.557179,198.755389 351.167254,197.759799 350.469018,197.514673 C349.770781,197.269547 348.876071,197.759799 348.477078,197.514673 C348.078086,197.269547 345.738539,197.514673 345.738539,197.514673 C345.764666,197.058943 345.764666,196.601467 345.738539,196.145737 C345.687154,195.651713 343,196.145737 343,196.145737 L345.548111,188 L355,188 Z" id="Path" fill="#000000" fill-rule="nonzero" opacity="0.1"></path>
                    <path d="M348.850754,180.816087 L343,195.452092 C343,195.452092 345.870486,195.036172 345.925377,195.452092 C345.953298,195.831815 345.953298,196.213002 345.925377,196.592724 C345.925377,196.592724 348.42454,196.387915 348.850754,196.592724 C349.276968,196.797534 350.23272,196.387915 350.978595,196.592724 C351.724469,196.797534 352.147454,197.632526 352.786775,196.075974 C353.426096,194.519421 358.104762,183.409291 357.998208,182.26866 C357.891655,181.128028 355.550707,183.617252 355.444154,182.996521 C355.3376,182.375791 355.444154,180 354.381848,180 C353.319542,180 352.680221,181.232008 352.0409,181.232008 C351.40158,181.232008 348.850754,180.816087 348.850754,180.816087 Z" id="Path" fill="#9D9CB5" fill-rule="nonzero"></path>
                    <g id="Group" opacity="0.35" transform="translate(333.000000, 209.000000)" fill="#FF6366" fill-rule="nonzero">
                        <rect id="Rectangle" opacity="0.2" x="0.284955752" y="0.266666667" width="34.4486726" height="3.52444444"></rect>
                    </g>
                    <g id="Group" opacity="0.35" transform="translate(333.000000, 227.000000)" fill="#FF6366" fill-rule="nonzero">
                        <rect id="Rectangle" opacity="0.2" x="0.284955752" y="0.0488888889" width="34.4486726" height="3.52444444"></rect>
                    </g>
                    <g id="Group" opacity="0.35" transform="translate(333.000000, 244.000000)" fill="#FF6366" fill-rule="nonzero">
                        <rect id="Rectangle" opacity="0.2" x="0.284955752" y="0.28" width="34.4486726" height="3.52444444"></rect>
                    </g>
                    <polygon id="Path" fill="url(#linearGradient-11)" fill-rule="nonzero" points="188.038955 190.460598 188.038955 181 175.396522 181 175.396522 190.460598 149 190.460598 149 265 211 265 211 190.460598"></polygon>
                    <rect id="Rectangle" fill="#F6F7F9" fill-rule="nonzero" x="150" y="191" width="61" height="75"></rect>
                    <rect id="Rectangle" fill="#000000" fill-rule="nonzero" opacity="0.1" x="176" y="193" width="12" height="10"></rect>
                    <rect id="Rectangle" fill="#9D9CB5" fill-rule="nonzero" x="176" y="182" width="12" height="19"></rect>
                    <g id="Group" opacity="0.35" transform="translate(163.000000, 208.000000)" fill="#FF6366" fill-rule="nonzero">
                        <rect id="Rectangle" opacity="0.2" x="0.297345133" y="0.284444444" width="34.4486726" height="3.52444444"></rect>
                    </g>
                    <g id="Group" opacity="0.35" transform="translate(163.000000, 214.000000)" fill="#FF6366" fill-rule="nonzero">
                        <rect id="Rectangle" opacity="0.2" x="0.297345133" y="0.182222222" width="34.4486726" height="3.52444444"></rect>
                    </g>
                    <g id="Group" opacity="0.35" transform="translate(163.000000, 219.000000)" fill="#FF6366" fill-rule="nonzero">
                        <rect id="Rectangle" opacity="0.2" x="0.297345133" y="0.0844444444" width="34.4486726" height="3.52444444"></rect>
                    </g>
                    <g id="Group" opacity="0.35" transform="translate(163.000000, 224.000000)" fill="#FF6366" fill-rule="nonzero">
                        <rect id="Rectangle" opacity="0.2" x="0.297345133" y="0.426666667" width="34.4486726" height="3.52444444"></rect>
                    </g>
                    <g id="Group" opacity="0.35" transform="translate(188.000000, 232.000000)" fill="#FF6366" fill-rule="nonzero">
                        <rect id="Rectangle" opacity="0.2" x="0.135483871" y="0.1664" width="9.60322581" height="7.6992"></rect>
                    </g>
                    <g id="Group" opacity="0.35" transform="translate(162.000000, 242.000000)" fill="#FF6366" fill-rule="nonzero">
                        <rect id="Rectangle" opacity="0.2" x="0.309677419" y="0.0896" width="9.60322581" height="7.6992"></rect>
                    </g>
                    <path d="M275.167725,189.807562 L275.082288,189.807562 C276.070919,185.72508 276.815444,182.473915 276.815444,182.473915 L272.598504,184.568323 C272.598504,184.568323 269.605148,180.379508 268.497515,181.078718 C267.389881,181.777928 264.95797,183.521119 264.95797,183.521119 L261.729662,181.774706 L260.493873,189.807562 L235,189.807562 L235,247.771085 L236.638565,248.8054 C237.990305,248.293076 240.214725,247.423091 240.214725,247.423091 L239.192529,250.419704 L239.88213,250.851474 L241.044687,249.739828 L241.474925,251.863234 L242.857178,252.736441 L245.03888,251.270356 L244.428614,253.738534 L246.476057,255.0274 L252.429204,252.665553 L250.635021,257.653464 L251.815887,258.401007 L254.510212,257.901571 C254.510212,257.901571 254.388159,258.89722 254.311876,259.976645 L257.015355,261.684392 C258.122988,261.230067 259.166544,260.782186 259.166544,260.782186 C259.166544,260.782186 259.059747,261.871278 259.010926,262.941037 L260.823417,264.088127 C262.254491,263.205254 264.076136,262.003387 264.076136,262.003387 L262.55047,265 L297,265 L297,189.807562 L275.167725,189.807562 Z" id="Path" fill="url(#linearGradient-12)" fill-rule="nonzero"></path>
                    <path d="M297,191 L297,266 L263.101927,266 L264.614223,263.013418 C264.614223,263.013418 262.823346,264.208702 261.415136,265.091324 L259.633444,263.944893 C259.682425,262.879885 259.789571,261.792079 259.789571,261.792079 C259.789571,261.792079 258.760966,262.238275 257.671133,262.690985 L255.01084,260.987624 C255.087373,259.912845 255.203704,258.919489 255.203704,258.919489 L252.555656,259.417796 L251.395413,258.671965 L253.158737,253.695414 L247.302419,256.053413 L245.285005,254.750651 L245.872779,252.288431 L243.72985,253.750782 L242.370621,252.881188 L241.948158,250.7642 L240.803222,251.878061 L240.123607,251.444893 L241.130784,248.458312 C241.130784,248.458312 238.941935,249.324648 237.610258,249.835982 L236,248.8068 L236,191 L297,191 Z" id="Path" fill="#F6F7F9" fill-rule="nonzero"></path>
                    <g id="Group" opacity="0.35" transform="translate(249.000000, 214.000000)" fill="#FF6366" fill-rule="nonzero">
                        <rect id="Rectangle" opacity="0.2" x="0.291150442" y="0.182222222" width="34.4486726" height="3.52444444"></rect>
                    </g>
                    <g id="Group" opacity="0.35" transform="translate(249.000000, 222.000000)" fill="#FF6366" fill-rule="nonzero">
                        <rect id="Rectangle" opacity="0.2" x="0.291150442" y="0.0533333333" width="34.4486726" height="3.52444444"></rect>
                    </g>
                    <g id="Group" opacity="0.35" transform="translate(249.000000, 229.000000)" fill="#FF6366" fill-rule="nonzero">
                        <rect id="Rectangle" opacity="0.2" x="0.291150442" y="0.364444444" width="34.4486726" height="3.52444444"></rect>
                    </g>
                    <g id="Group" opacity="0.35" transform="translate(248.000000, 238.000000)" fill="#FF6366" fill-rule="nonzero">
                        <rect id="Rectangle" opacity="0.2" x="0.313333333" y="0.235555556" width="7.42666667" height="3.52444444"></rect>
                    </g>
                    <path d="M275,193.003169 C273.411431,199.777465 271.095988,209.162623 270.492215,208.99786 C269.554314,208.722199 268.088844,206.779896 268.088844,206.779896 C268.088844,206.779896 264.642059,210.281111 262.971423,208.475054 C261.300788,206.668998 259,207.907889 259,207.907889 L261.227514,193 L275,193.003169 Z" id="Path" fill="#000000" fill-rule="nonzero" opacity="0.1"></path>
                    <path d="M262.429287,182.810271 L259,206.833255 C259,206.833255 261.35632,205.499023 263.069461,207.442509 C264.782601,209.385995 268.320087,205.614747 268.320087,205.614747 C268.320087,205.614747 269.822842,207.697783 270.784605,207.997304 C271.746368,208.296826 277,183.538653 277,183.538653 L272.927534,185.723798 C272.927534,185.723798 270.036233,181.353507 268.963266,182.081889 C267.890299,182.810271 265.546001,184.631225 265.546001,184.631225 L262.429287,182.810271 Z" id="Path" fill="#9D9CB5" fill-rule="nonzero"></path>
                    <path d="M290.401383,82.1892714 L290.401383,80 L258.116752,80 C256.635164,80 257.541762,82.1892714 257.541762,82.1892714 L240,82.1892714 L240,131 L317,131 L317,82.1698687 L290.401383,82.1892714 Z" id="Path" fill="url(#linearGradient-13)" fill-rule="nonzero"></path>
                    <rect id="Rectangle" fill="#F6F7F9" fill-rule="nonzero" x="240" y="84" width="77" height="49"></rect>
                    <path d="M291.124515,93 L260.437855,93 C260.437855,93 260.106827,89.2186601 261.183443,88.5182902 C262.26006,87.8179203 258.120655,85.351829 258.120655,85.351829 C258.074824,85.2368137 258.034553,85.1193842 258,85 L291.124515,85 L291.124515,86.1442663 C291.124515,86.1442663 295.344356,90.0998767 291.124515,93 Z" id="Path" fill="#000000" fill-rule="nonzero" opacity="0.1"></path>
                    <path d="M258.849961,82 L291.132759,82 L291.132759,85.0360721 C291.132759,85.0360721 295.334051,89.0440882 291.132759,92 L260.580992,92 C260.580992,92 260.251418,88.1589846 261.323302,87.4475618 C262.395186,86.7361389 258.273978,84.2311289 258.273978,84.2311289 C258.273978,84.2311289 257.368421,82 258.849961,82 Z" id="Path" fill="#9D9CB5" fill-rule="nonzero"></path>
                    <g id="Group" opacity="0.35" transform="translate(249.000000, 99.000000)" fill="#FF6366" fill-rule="nonzero">
                        <rect id="Rectangle" opacity="0.2" x="0.204526316" y="0.384" width="57.5665263" height="1.248"></rect>
                    </g>
                    <g id="Group" opacity="0.35" transform="translate(249.000000, 102.000000)" fill="#FF6366" fill-rule="nonzero">
                        <rect id="Rectangle" opacity="0.2" x="0.205701754" y="0.36" width="34.5855263" height="1.56"></rect>
                    </g>
                    <g id="Group" opacity="0.35" transform="translate(249.000000, 106.000000)" fill="#FF6366" fill-rule="nonzero">
                        <rect id="Rectangle" opacity="0.2" x="0.204526316" y="0.245" width="57.5665263" height="1.56"></rect>
                    </g>
                    <g id="Group" opacity="0.35" transform="translate(249.000000, 109.000000)" fill="#FF6366" fill-rule="nonzero">
                        <rect id="Rectangle" opacity="0.2" x="0.204526316" y="0.125" width="57.5665263" height="1.56"></rect>
                    </g>
                    <g id="Group" opacity="0.35" transform="translate(249.000000, 114.000000)" fill="#FF6366" fill-rule="nonzero">
                        <rect id="Rectangle" opacity="0.2" x="0.204526316" y="0.005" width="57.5665263" height="1.56"></rect>
                    </g>
                    <path d="M331.978658,307.484491 C331.432176,305.008961 331.096348,302.838812 331.096348,302.838812 C331.096348,302.838812 331.22152,300.145618 330.085813,298.124911 L330.085813,297.452424 L330.085813,297.452424 L330.085813,292.478625 C330.407794,291.577908 330.802066,290.708369 331.264262,289.879644 C332.106883,288.313758 331.264262,282.583005 331.264262,282.583005 C331.264262,282.583005 328.14412,274.503423 328.904311,269.380182 C329.664502,264.256941 322.493061,246.622855 322.493061,246.622855 C322.537146,244.921424 322.763513,243.230901 323.167769,241.584081 C323.242203,241.238021 323.273003,240.882956 323.259358,240.528245 C323.259358,240.486011 323.259358,240.443778 323.259358,240.398296 L323.259358,240.440529 C323.152504,237.061854 320.642957,230.726838 320.642957,230.726838 L320.978785,218.651323 C320.978785,218.651323 322.581597,211.530115 319.96825,201.975612 C319.052357,198.63917 318.469238,195.971966 318.099828,193.912273 C318.057086,193.678365 318.017398,193.454203 317.980762,193.239787 C323.363159,192.36588 327.472465,191.638165 327.472465,191.638165 C327.472465,191.638165 324.349271,177.733617 322.242717,175.30357 C320.136163,172.873523 318.447867,165.232519 318.447867,165.232519 C318.447867,165.232519 317.348796,155.418117 319.122575,152.562487 C320.896354,149.706857 321.143646,144.742803 321.143646,144.742803 C321.143646,144.742803 325.191892,141.617529 325.698686,140.227074 C326.20548,138.836619 327.048102,135.711345 327.048102,134.054494 C327.048102,132.397644 326.541308,130.925971 326.712274,130.058561 C326.883241,129.191151 325.530772,125.890445 326.20548,124.324559 C326.380773,123.843759 326.471829,123.332861 326.474142,122.817151 C326.475839,122.802044 326.475839,122.786775 326.474142,122.771668 C326.474142,122.771668 326.474142,122.771668 326.474142,122.755425 C326.478637,121.38731 326.359016,120.021928 326.116944,118.678273 C326.116944,118.678273 324.285158,116.959697 322.114492,116.404165 L322.025956,116.030562 L321.796982,115.055944 C321.668068,114.963853 321.534559,114.879262 321.397043,114.802543 L321.397043,114.448432 L321.360407,113.038485 L321.995426,109.864479 C323.237987,104.341645 316.322996,103.526215 316.322996,103.526215 C315.908482,102.675467 315.21069,102.019814 314.366038,101.687436 C312.973881,101.164391 314.134012,109.984682 314.784296,110.546712 C315.275825,110.972295 316.787048,113.736961 317.513657,115.094929 L317.513657,115.094929 L317.632723,115.319091 C317.522346,115.428382 317.420263,115.546788 317.327425,115.673202 L317.589981,117.586701 L317.62967,117.879087 C317.17214,118.486283 316.80081,119.16163 316.527545,119.883551 C316.527545,119.883551 317.794531,121.358473 317.541133,123.008825 C317.287736,124.659178 317.928861,126.715622 317.959391,126.829327 C317.883067,126.738363 316.994651,125.711766 316.106235,125.961917 C315.217818,126.212069 312.747961,127.004759 312.747961,127.004759 C312.747961,127.004759 310.891751,127.352372 311.062718,127.787702 C311.233684,128.223031 309.795733,130.133282 309.795733,130.133282 L304.810222,125.104254 C304.761375,124.954812 304.712527,124.805371 304.666732,124.649432 C304.45889,123.930965 304.313768,123.19363 304.23321,122.446796 C304.776151,122.308917 305.30881,122.128667 305.826863,121.907507 C306.351161,121.717312 306.824556,121.395226 307.206809,120.968625 C307.707497,120.31888 307.817404,119.470963 308.009741,118.694517 C308.403575,117.148123 309.252303,115.770664 309.859845,114.305488 C310.886058,111.830436 311.231182,109.096316 310.855115,106.42083 C310.776475,105.597872 310.51371,104.806936 310.088818,104.114234 C309.276727,102.921952 307.799086,102.437891 306.730544,101.486015 C305.662003,100.534138 304.965924,99.0852061 303.714204,98.3704863 C302.584602,97.7207411 301.204657,97.8019593 299.931566,98.0228726 C297.436554,98.459974 295.039832,99.3875905 292.863926,100.7583 C292.137317,101.21637 291.337438,101.732918 290.500922,101.583476 C289.786526,101.44703 289.261414,100.836269 288.800414,100.254747 C288.806123,100.229407 288.81326,100.204455 288.821785,100.180027 L288.766832,100.111804 C288.238841,101.358923 287.974145,102.714034 287.991376,104.081747 C287.991376,104.292914 287.991376,104.504081 288.015799,104.731492 C288.015799,104.806213 288.015799,104.880934 288.015799,104.955654 C288.020314,105.016202 288.020314,105.077035 288.015799,105.137583 L288.015799,105.137583 C288.015846,105.232072 288.003515,105.326107 287.979164,105.416973 C287.873143,105.688879 287.713907,105.933633 287.512058,106.134942 C287.359801,106.317068 287.223862,106.51393 287.106013,106.722961 C287.127383,106.651489 287.148754,106.580017 287.173178,106.508545 C286.855069,107.001415 286.676047,107.580808 286.657225,108.178391 C286.629997,108.6149 286.764834,109.045347 287.032741,109.377171 C287.281249,109.636822 287.553269,109.869697 287.844833,110.072398 C287.140714,114.246644 288.956423,118.445456 292.393768,120.591773 C292.451774,120.741215 292.506728,120.893905 292.564734,121.046595 C293.199753,122.833394 293.679071,124.912579 293.480627,126.832576 C293.462309,126.97552 293.443991,127.115215 293.419568,127.25491 C293.355455,127.326382 293.294396,127.401103 293.239442,127.475824 L293.239442,127.475824 C293.239442,127.475824 284.996406,127.560291 283.069978,125.692273 C281.14355,123.824256 278.185216,130.24049 278.185216,130.24049 C278.185216,130.24049 275.232988,130.85125 274.643763,130.24049 C274.054539,129.629729 270.595517,130.156023 270.595517,130.156023 C270.595517,130.156023 268.48591,127.982625 265.451251,128.158056 C264.298586,127.225884 263.026957,126.473276 261.67472,125.922933 L261.67472,125.922933 L261.580078,125.887197 L261.580078,125.887197 C260.986296,125.658957 260.352373,125.573526 259.723868,125.637045 C259.723868,125.637045 255.675621,122.063446 254.497172,120.16619 C253.318724,118.268934 247.692088,111.167219 247.667664,111.134731 L247.646294,110.809859 L247.582181,109.776764 C247.415504,109.804708 247.247159,109.819908 247.07844,109.822246 L246.96548,109.464886 C246.642509,108.457025 246.242239,107.479115 245.768713,106.541033 C245.768713,106.541033 245.768713,105.241542 246.125911,104.91667 C246.48311,104.591797 245.979369,99.8129207 245.979369,99.8129207 C245.979369,99.8129207 242.331062,90.7359799 239.064377,97.5128226 C239.064377,97.5128226 232.888206,101.895354 238.07216,106.999103 C238.07216,106.999103 240.139025,108.067934 240.432111,108.912603 C240.624448,109.461637 241.326633,110.991787 241.799844,112.011887 C241.879221,112.180821 241.94944,112.33676 242.010499,112.466709 L241.952493,112.518689 L242.028817,113.369855 L242.059347,113.694728 C241.082394,114.285996 240.419899,114.867518 240.581706,115.319091 C240.870268,116.071387 241.068247,116.859502 241.170931,117.664671 C241.170931,117.664671 248.339319,127.219174 249.267424,131.309321 C249.267424,131.309321 268.501175,143.469303 274.820836,144.339961 L273.724817,150.418328 C273.724817,150.418328 273.385937,154.066647 273.47142,155.369386 C273.556904,156.672126 272.711229,162.581559 272.711229,162.581559 C272.711229,162.581559 271.615211,171.265404 270.687106,172.480427 C269.759001,173.695451 269.929968,178.909656 269.929968,178.909656 C269.706641,181.405101 269.282762,183.875591 268.662983,186.294011 C267.74709,189.594716 268.412639,193.675116 268.412639,193.675116 C268.412639,193.675116 265.207013,201.4948 272.882196,196.196128 C272.882196,196.196128 276.649569,195.945976 280.987848,195.790037 C280.987848,195.939479 280.987848,196.092169 280.987848,196.248108 C280.987848,196.842624 280.96953,197.485872 280.963424,198.164856 C280.905418,202.641601 280.880994,208.810932 281.070278,213.479351 C281.406106,221.731115 283.769109,238.062462 283.769109,238.062462 L283.769109,246.265495 C283.616651,247.036698 283.54194,247.823007 283.546242,248.611075 C283.494276,251.502957 284.215278,254.351065 285.625319,256.823855 L286.147378,262.239482 C286.147378,262.239482 287.533429,265.845568 287.560906,267.999473 C287.554314,268.17533 287.53389,268.35029 287.499846,268.522518 C287.448183,268.798373 287.425655,269.079509 287.432681,269.360689 C287.353304,271.845965 288.760726,277.787885 288.760726,277.787885 C288.760726,277.787885 288.846209,283.781785 289.676619,284.129398 C290.397121,284.425032 288.714931,287.582794 288.21119,288.489189 C288.21119,288.430712 288.189819,288.375483 288.18066,288.317006 C288.116548,288.433961 288.076859,288.498935 288.076859,288.498935 C287.903517,288.982371 287.814541,289.495411 287.814303,290.012841 C287.716778,290.848682 288.080481,291.669524 288.748514,292.121265 C290.351326,293.164106 291.212266,294.031516 289.853691,294.395373 C289.353205,294.476584 288.856955,294.585017 288.366892,294.720246 C288.342468,294.652022 288.318044,294.583799 288.296673,294.518825 C287.906208,294.690391 287.676667,295.123883 287.741032,295.568163 C287.704396,296.006741 287.84178,296.64674 288.244773,297.601866 C289.594188,300.814856 290.528399,302.033128 290.528399,302.033128 L291.17563,301.955159 C291.076981,302.216277 290.951016,302.464746 290.800114,302.695868 C290.553676,303.072719 290.226012,303.38129 289.844532,303.595765 C289.493346,303.821195 289.100911,303.964087 288.69356,304.014851 C287.767769,304.04775 286.898728,304.49773 286.30308,305.252616 C285.463511,306.409162 284.935346,307.988043 286.608377,309.372001 L292.641059,311.587632 C292.641059,311.587632 303.021178,313.02032 302.462483,310.544791 C301.903789,308.069261 301.580173,305.899112 301.580173,305.899112 C301.580173,305.899112 301.696186,303.48206 300.737552,301.506835 C300.63029,301.281151 300.507852,301.064004 300.371195,300.857089 L300.737552,300.811607 C300.737552,300.811607 301.49469,295.340752 302.508278,294.314155 C302.740304,294.073749 302.792205,293.888572 302.737251,293.748876 C302.844105,293.449994 302.578497,293.274562 302.239616,293.177101 L302.166345,293.391517 C301.835301,293.31465 301.497683,293.274369 301.158863,293.271314 C301.158863,293.271314 300.819982,290.405937 301.916001,289.372842 C302.096451,289.13367 302.174014,288.824747 302.129709,288.521676 C302.138958,288.129376 302.100996,287.737429 302.016749,287.355383 C302.016749,287.374876 301.992325,287.400866 301.97706,287.420358 C301.424471,284.821377 299.55605,280.685749 299.55605,280.685749 C299.55605,280.685749 299.470567,278.086768 300.145274,277.040678 C300.819982,275.994588 300.062844,262.879481 300.062844,262.879481 C300.062844,262.879481 300.316241,256.541216 299.55605,253.588124 C298.795859,250.635032 300.471943,247.158895 300.471943,247.158895 C300.471943,247.158895 300.471943,247.090672 300.453625,246.970469 L300.474996,246.924987 C300.474996,246.924987 300.43836,246.535139 300.377301,245.927628 C300.368864,245.946548 300.361722,245.966091 300.35593,245.986105 C300.188016,244.309762 299.864401,241.268954 299.629321,239.862256 C299.290441,237.864289 299.711752,228.309786 299.711752,228.309786 L301.23824,224.229386 L303.937071,231.262878 L306.806869,240.645199 C306.806869,240.645199 308.226503,242.626922 308.260085,244.634635 C308.260085,244.732096 308.260085,244.829558 308.241768,244.92702 C308.21884,245.135122 308.207626,245.344497 308.208185,245.554024 C308.15766,246.738802 308.46353,247.909852 309.081336,248.896963 C309.081336,248.896963 309.841527,253.324977 311.023029,254.455534 C312.204531,255.586091 312.201478,257.75624 312.201478,257.75624 C312.201478,257.75624 313.636377,264.18222 314.311085,265.312777 C314.878938,266.264653 314.92168,268.886375 314.903362,269.682313 L314.903362,269.682313 C314.903362,269.831755 314.903362,269.916222 314.903362,269.916222 C314.903362,269.916222 315.101805,272.213071 315.095699,274.139566 C315.095699,274.376723 315.095699,274.607382 315.074329,274.825047 L315.074329,274.776316 C315.072295,275.302538 315.013911,275.8268 314.900309,276.338953 C314.890358,276.367586 314.882199,276.396889 314.875885,276.426669 C314.875885,276.319461 314.875885,276.209004 314.900309,276.101796 C314.606353,277.413644 314.464858,278.758933 314.478998,280.107475 C314.43931,282.41732 314.784296,285.155996 316.084864,286.760867 C318.362384,289.541776 319.797283,289.194162 319.797283,289.194162 C319.797283,289.194162 318.698211,292.667051 317.354902,293.362278 C317.304222,293.38975 317.256167,293.422391 317.211412,293.45974 C317.211412,293.391517 317.186988,293.326542 317.177829,293.258319 C316.896955,293.518217 316.783995,293.986033 316.783995,294.557809 C316.6863,296.084711 317.589981,298.566737 318.453973,299.70704 C318.772749,300.039596 319.163994,300.28292 319.592734,300.415263 C319.523741,300.465607 319.452415,300.512231 319.379025,300.554958 C319.229075,300.642198 319.07408,300.719239 318.914973,300.785617 C318.697134,300.888273 318.465201,300.952991 318.228053,300.977292 C317.301501,300.99974 316.428649,301.444626 315.831467,302.198813 C314.991898,303.352111 314.463733,304.930992 316.136764,306.314949 L322.169446,308.53058 C322.169446,308.53058 332.531247,309.96002 331.978658,307.484491 Z" id="Path" fill="url(#linearGradient-14)" fill-rule="nonzero"></path>
                    <path d="M291.299525,309.638695 L285.963595,307.703527 C284.490075,306.494756 284.958922,305.115736 285.704054,304.10559 C286.22096,303.451062 286.991671,303.056665 287.816658,303.024506 C288.178419,302.979602 288.526112,302.854661 288.835285,302.65847 C289.171925,302.467982 289.458961,302.198515 289.672513,301.872485 C290.062845,301.244501 290.273506,300.518422 290.280898,299.775581 C290.280898,299.775581 296.14149,298.030524 297.743385,299.775581 C298.029534,300.091045 298.268385,300.447673 298.452238,300.833964 C299.289465,302.559158 299.200161,304.67025 299.200161,304.67025 C299.200161,304.67025 299.498772,306.562856 299.981573,308.727861 C300.464374,310.892866 291.299525,309.638695 291.299525,309.638695 Z" id="Path" fill="#2D293D" fill-rule="nonzero"></path>
                    <path d="M321.714368,308.639794 L316.025164,306.704426 C314.457063,305.49553 314.956951,304.116368 315.748441,303.108955 C316.298295,302.452859 317.120802,302.058053 318.000913,302.02776 C318.226363,302.00682 318.446585,301.950237 318.652553,301.860331 C318.802681,301.802072 318.948776,301.734776 319.089955,301.658848 C320.681861,300.82454 320.640204,298.775661 320.640204,298.775661 C320.640204,298.775661 326.888806,297.030424 328.596757,298.775661 C328.825352,299.011491 329.025009,299.271407 329.191862,299.550375 C330.263051,301.315476 330.14403,303.670836 330.14403,303.670836 C330.14403,303.670836 330.462411,305.566475 330.980153,307.728865 C331.497894,309.891256 321.714368,308.639794 321.714368,308.639794 Z" id="Path" fill="#2D293D" fill-rule="nonzero"></path>
                    <path d="M299.192626,300.080547 C299.518546,300.520354 299.790594,301.017547 300,301.556097 L300,301.556097 L290,303 C290.444584,302.124492 290.684524,301.112227 290.692943,300.076591 C290.692943,300.076591 297.368086,297.651626 299.192626,300.080547 Z" id="Path" fill="#000000" fill-rule="nonzero" opacity="0.1"></path>
                    <path d="M328,298.604838 L328,300.335008 C326.481795,302.702609 319.132938,302.185614 317,300.995938 C317.156646,300.935634 317.309084,300.865973 317.456393,300.787378 C319.117415,299.923762 319.073949,297.802908 319.073949,297.802908 C319.073949,297.802908 325.593847,295.996364 327.375953,297.802908 C327.615558,298.046869 327.82493,298.315922 328,298.604838 L328,298.604838 Z" id="Path" fill="#000000" fill-rule="nonzero" opacity="0.1"></path>
                    <path d="M329.638863,289.936805 C329.192397,290.762974 328.811679,291.627246 328.500671,292.520622 L328.500671,299.348358 C326.87251,302.197016 318.409114,301.247463 317.270923,299.693943 C316.132732,298.140424 314.912372,294.080601 316.211857,293.38943 C317.511343,292.698259 318.567366,289.245634 318.567366,289.245634 C318.567366,289.245634 317.182668,289.59122 314.985411,286.826536 C312.788154,284.061852 313.439418,277.931746 313.850263,276.46543 C314.261107,274.999114 313.850263,270.073713 313.850263,270.073713 C313.850263,270.073713 313.932432,266.621088 313.281167,265.497128 C312.629903,264.373167 311.263464,257.98468 311.263464,257.98468 C311.263464,257.98468 311.263464,255.827193 310.12223,254.703233 C308.980995,253.579272 308.250605,249.177094 308.250605,249.177094 C307.584646,248.076537 307.297587,246.76552 307.438046,245.466087 C307.681509,243.305371 306.053348,240.973476 306.053348,240.973476 L303.286995,231.649127 L300.684981,224.653443 L299.221157,228.713265 C299.221157,228.713265 298.813356,238.212022 299.138988,240.198331 C299.46462,242.18464 299.951547,247.452397 299.951547,247.452397 C299.951547,247.452397 298.326429,250.905022 299.056819,253.840884 C299.787209,256.776746 299.546789,263.081259 299.546789,263.081259 C299.546789,263.081259 300.277179,276.119845 299.625915,277.156601 C298.97465,278.193358 299.056819,280.783634 299.056819,280.783634 C299.056819,280.783634 302.404441,288.380055 301.336245,289.416812 C300.26805,290.453568 300.602812,293.292537 300.602812,293.292537 C300.602812,293.292537 302.882238,293.292537 301.905341,294.329294 C300.928444,295.36605 300.195011,300.788836 300.195011,300.788836 L290.35909,302 C290.35909,302 289.446102,300.788836 288.155747,297.594592 C286.865391,294.400349 288.39921,294.745934 289.707826,294.400349 C291.016441,294.054763 290.188666,293.192414 288.642673,292.139509 C287.096681,291.086604 287.991409,288.770858 287.991409,288.770858 C287.991409,288.770858 290.34996,284.539858 289.537401,284.194272 C288.724842,283.848687 288.642673,277.889759 288.642673,277.889759 C288.642673,277.889759 287.014512,270.810101 287.425356,268.910996 C287.836201,267.01189 286.107611,262.464372 286.107611,262.464372 L285.538515,257.022208 C282.607825,251.670478 283.749059,246.748307 283.749059,246.748307 L283.749059,238.383199 C283.749059,238.383199 281.469634,222.15037 281.144001,213.946752 C280.937057,208.691914 280.99488,201.521822 281.061832,197.048589 C281.101395,194.539057 281.144001,192.875725 281.144001,192.875725 L316.294026,189 C316.294026,189 316.257507,190.721468 316.933118,194.542287 C317.289183,196.589962 317.846105,199.241604 318.734747,202.558579 C321.257636,212.057336 319.711643,219.136994 319.711643,219.136994 L319.386011,231.135593 C319.386011,231.135593 322.477996,239.168034 321.820645,241.929488 C321.430429,243.568739 321.212016,245.248716 321.16938,246.938863 C321.16938,246.938863 328.09287,264.463601 327.359437,269.569869 C326.626003,274.676137 329.638863,282.695658 329.638863,282.695658 C329.638863,282.695658 330.451422,288.380055 329.638863,289.936805 Z" id="Path" fill="#575988" fill-rule="nonzero"></path>
                    <path d="M308,244.766782 L319,243 C319,243 312.767918,250.671155 308,244.766782 Z" id="Path" fill="#000000" fill-rule="nonzero" opacity="0.05"></path>
                    <path d="M319.011134,232 C319.011134,232 319.573963,235.632379 316,237 C316,237 322.397488,236.374635 319.011134,232 Z" id="Path" fill="#000000" fill-rule="nonzero" opacity="0.1"></path>
                    <path d="M316,219 C316,219 307.513722,226.590714 304.427015,225.963123 C301.340308,225.335532 316,219 316,219 Z" id="Path" fill="#000000" fill-rule="nonzero" opacity="0.1"></path>
                    <path d="M296,248 C296,248 289.211198,249.578005 289.004371,252.357411 C288.797543,255.136816 296,248 296,248 Z" id="Path" fill="#000000" fill-rule="nonzero" opacity="0.1"></path>
                    <path d="M297.207218,285 C297.207218,285 286.503719,286.721035 289.543445,287.892741 C292.583171,289.064448 297.570221,289.999475 297.570221,289.999475 C297.570221,289.999475 301.017053,290.157261 297.207218,285 Z" id="Path" fill="#000000" fill-rule="nonzero" opacity="0.05"></path>
                    <g id="Group" opacity="0.05" transform="translate(281.000000, 192.000000)" fill="#000000" fill-rule="nonzero">
                        <path d="M8.1182716,98.6426549 C7.63138512,98.314225 7.30952758,97.7632597 7.2441358,97.1462832 L7.14734568,97.329646 C7.14734568,97.329646 6.25808642,99.6937168 7.79462963,100.744779 L8.2937037,101.098407 C8.575,101.042743 8.88049383,101.000177 9.17691358,100.918319 C10.4775309,100.567965 9.65481481,99.6937168 8.1182716,98.6426549 Z" id="Path"></path>
                        <path d="M20.4106173,97.9419469 C20.6707407,97.68 20.6616667,97.0087611 20.501358,96.1443363 C20.0718519,96.8221239 19.9690123,97.8764602 19.9599383,98.6786726 C20.0598366,98.4010724 20.213511,98.1498607 20.4106173,97.9419469 L20.4106173,97.9419469 Z" id="Path"></path>
                        <path d="M18.9406173,54.39 C18.5871709,55.4247736 18.3702825,56.5083321 18.296358,57.6086726 C18.4785393,56.8487717 18.7256115,56.1088597 19.0343827,55.3984956 C19.0343827,55.3984956 18.9980864,55.0023009 18.9406173,54.39 Z" id="Path"></path>
                        <path d="M40.787963,49.7928319 C40.8541821,49.4793832 40.8836529,49.158151 40.875679,48.8367257 C40.757716,49.4915929 40.6730247,50.0973451 40.6125309,50.6277876 C40.6639506,50.3560177 40.7214198,50.0776991 40.787963,49.7928319 Z" id="Path"></path>
                        <path d="M18.7107407,85.5125664 C18.8438272,85.2964602 18.9164198,84.5761062 18.952716,83.5676106 C18.6502469,84.2061062 18.5262346,85.2375221 18.4869136,86.0233628 C18.5425673,85.8441 18.6177032,85.6726322 18.7107407,85.5125664 Z" id="Path"></path>
                        <path d="M20.7161111,102.02177 C20.050679,103.986372 19.6,107.39823 19.6,107.39823 L9.82117284,108.622832 C9.82117284,108.622832 8.91376543,107.39823 7.6312963,104.159912 C7.51938272,103.875044 7.42864198,103.619646 7.35604938,103.387168 C6.76925926,103.678584 6.53938272,104.336726 7.30765432,106.258761 C8.60222222,109.49708 9.49753086,110.724956 9.49753086,110.724956 L19.276358,109.490531 C19.276358,109.490531 20.0053086,103.976549 20.9762346,102.941858 C21.4541358,102.417965 21.148642,102.152743 20.7161111,102.02177 Z" id="Path"></path>
                        <path d="M7.79462963,86.2984071 C7.79462963,86.2984071 7.8762963,92.3395575 8.68388889,92.6899115 L8.68388889,92.6899115 C9.09222222,91.6912389 9.36444444,90.7253097 8.98635802,90.5845133 C8.17876543,90.2374336 8.09709877,84.1962832 8.09709877,84.1962832 C8.09709877,84.1962832 6.47888889,77.0156637 6.88722222,75.090354 C7.29555556,73.1650442 5.59265432,68.5253097 5.59265432,68.5253097 L5.02703704,63.0113274 C2.11425926,57.5824779 3.24851852,52.5923894 3.24851852,52.5923894 L3.24851852,44.1053097 C3.24851852,44.1053097 0.983024691,27.6452212 0.659382716,19.3284071 C0.453703704,14.0043363 0.51117284,6.73530973 0.577716049,2.20035398 C0.577716049,1.37849558 0.604938272,0.65159292 0.617037037,0.0392920354 L0.335740741,0.0687610619 C0.335740741,0.0687610619 0.293395062,1.75504425 0.254074074,4.29920354 C0.187530864,8.83415929 0.130061728,16.0868142 0.335740741,21.430531 C0.659382716,29.7473451 2.92487654,46.2041593 2.92487654,46.2041593 L2.92487654,54.6977876 C2.92487654,54.6977876 1.79061728,59.6878761 4.70339506,65.1134513 L5.26901235,70.630708 C5.26901235,70.630708 6.9658642,75.2704425 6.56358025,77.1793805 C6.1612963,79.0883186 7.79462963,86.2984071 7.79462963,86.2984071 Z" id="Path"></path>
                        <path d="M36.583642,106.258761 C35.7889866,105.014077 35.2600013,103.593648 35.035,102.100354 C34.0368519,103.082655 35.1832099,106.864513 36.2448765,108.360885 C37.3761111,109.935841 45.7877778,110.898496 47.4059877,108.010531 L47.4059877,106.343894 C45.2342593,108.691593 37.6543827,107.748584 36.583642,106.258761 Z" id="Path"></path>
                        <path d="M48.8759877,96.3669912 C48.4306453,97.204131 48.0512182,98.0803836 47.7417284,98.9864602 L47.7417284,100.214336 C47.9262346,99.7657522 48.1893827,99.1665487 48.5523457,98.4625664 C48.7852469,98.0074336 48.882037,97.2052212 48.9062346,96.2916814 C48.8941358,96.3211504 48.8850617,96.3473451 48.8759877,96.3669912 Z" id="Path"></path>
                        <path d="M37.0796914,97.7454867 C37.3890021,97.0727693 37.6557877,96.3781058 37.8782099,95.6662832 C37.8782099,95.6662832 36.5019753,96.0166372 34.3181481,93.2170796 C32.7301852,91.1771681 32.6394444,87.3232743 32.8662963,84.8118584 C32.457963,86.3016814 31.8137037,92.5163717 33.9945062,95.3159292 C35.4282099,97.1495575 36.5019753,97.630885 37.0796914,97.7454867 Z" id="Path"></path>
                        <path d="M32.8632716,78.3319469 C33.0056712,80.0573245 33.0591903,81.7899487 33.0235802,83.5217699 C33.0650314,83.2479512 33.1205704,82.976851 33.1899383,82.7097345 C33.5982716,81.2231858 33.1899383,76.2330973 33.1899383,76.2330973 C33.1899383,76.2330973 33.2716049,72.7295575 32.624321,71.5933628 C31.977037,70.4571681 30.5887037,63.9772566 30.5887037,63.9772566 C30.5887037,63.9772566 30.5887037,61.7867257 29.4574691,60.650531 C28.3262346,59.5143363 27.597284,55.0481416 27.597284,55.0481416 C26.9356388,53.9310687 26.6503838,52.6010364 26.7896914,51.2826549 C27.0316667,49.0953982 25.4134568,46.7313274 25.4134568,46.7313274 L22.6640123,37.2750442 L20.0779012,30.1861062 L18.62,34.2986726 C18.62,34.2986726 18.5988272,34.8160177 18.5716049,35.6280531 L19.7542593,32.2849558 L22.3403704,39.3771681 L25.0898148,48.830177 C25.0898148,48.830177 26.7080247,51.1942478 26.4660494,53.3847788 C26.3264489,54.7021411 26.6117535,56.0312475 27.273642,57.1469912 C27.273642,57.1469912 28.0025926,61.6131858 29.1338272,62.7493805 C30.2650617,63.8855752 30.2862346,66.0761062 30.2862346,66.0761062 C30.2862346,66.0761062 31.6624691,72.5560177 32.3097531,73.6922124 C32.957037,74.8284071 32.8632716,78.3319469 32.8632716,78.3319469 Z" id="Path"></path>
                    </g>
                    <path d="M321.824863,110.673374 L321.078053,114.027414 L321.122862,115.518862 L321.152734,116.621983 L316.970599,117 L316.503843,116.206165 L316.503843,116.206165 C315.641278,114.769701 313.852668,111.845226 313.270157,111.395042 C312.500943,110.797089 311.126813,101.470384 312.777262,102.023663 C313.782869,102.381763 314.608877,103.069729 315.096107,103.954985 C315.096107,103.954985 323.28861,104.831297 321.824863,110.673374 Z" id="Path" fill="#FFCDD3" fill-rule="nonzero"></path>
                    <path d="M320,116.595769 L316.402901,117 L316,116.188023 L316,116.188023 C316.515713,115.608039 317.988719,114.289894 319.970991,115.485012 L320,116.595769 Z" id="Path" fill="#000000" fill-rule="nonzero" opacity="0.1"></path>
                    <path d="M320,115.865417 L315.359168,117 L315.2615,116.278589 L315,114.347174 C315,114.347174 316.830498,111.80256 319.486452,113.707741 L319.716446,114.691484 L320,115.865417 Z" id="Path" fill="#DCE6F2" fill-rule="nonzero"></path>
                    <path d="M248,109.408259 L243.139544,112 C243.139544,112 242.953558,111.619223 242.699376,111.078765 C242.234408,110.11761 241.546257,108.6682 241.357171,108.149238 C241.068891,107.350834 239.035435,106.343617 239.035435,106.343617 C233.942496,101.519417 240.011866,97.3738597 240.011866,97.3738597 C243.223238,90.9712767 246.806585,99.5479742 246.806585,99.5479742 C246.806585,99.5479742 247.302549,104.068167 246.952274,104.372175 C246.601999,104.676182 246.601999,105.907566 246.601999,105.907566 C247.066834,106.796145 247.458673,107.720368 247.773716,108.671271 C247.919406,109.131888 248,109.408259 248,109.408259 Z" id="Path" fill="#FFCDD3" fill-rule="nonzero"></path>
                    <path d="M249,108.913961 L244.415205,112 C244.415205,112 244.239766,111.546601 244,110.903067 C244.646199,110.226624 246.944444,107.897469 247.69883,108.003506 C248.059641,108.05943 248.423999,108.070453 248.78655,108.036414 C248.923977,108.584881 249,108.913961 249,108.913961 Z" id="Path" fill="#000000" fill-rule="nonzero" opacity="0.1"></path>
                    <path d="M249,112.078507 L244.174959,115 L244.079278,113.723946 L244,112.830708 C244,112.830708 246.793876,109.889066 247.619464,110.00324 C248.037292,110.078876 248.461888,110.078876 248.879716,110.00324 L248.93439,111.071096 L249,112.078507 Z" id="Path" fill="#DCE6F2" fill-rule="nonzero"></path>
                    <path d="M307,130.262574 C307,130.262574 283.087366,133.063038 287.556611,131.553111 C290.66457,130.501323 291.907753,128.446144 292.162606,126.168347 C292.373947,124.261579 291.901537,122.199947 291.273729,120.425459 C290.709005,118.859321 289.992573,117.356746 289.135454,115.940845 C289.135454,115.940845 307.416466,105.500404 303.742859,114.972943 C303.179396,116.408702 302.830392,117.925348 302.707909,119.470462 C302.596043,121.004923 302.755086,122.547692 303.177211,124.02283 C303.869562,126.430435 305.193112,128.5908 307,130.262574 L307,130.262574 Z" id="Path" fill="#FFCDD3" fill-rule="nonzero"></path>
                    <path d="M303.519495,113.982965 C302.960018,115.418414 302.613483,116.934732 302.491866,118.479511 C300.782238,119.979435 298.905968,119.882666 296.49891,119.882666 C294.647327,119.882666 292.601328,120.350384 291.123148,119.418174 C290.562419,117.852374 289.851055,116.350124 289,114.934529 C289,114.934529 307.151683,104.496348 303.519495,113.982965 Z" id="Path" fill="#000000" fill-rule="nonzero" opacity="0.1"></path>
                    <ellipse id="Oval" fill="#FFCDD3" fill-rule="nonzero" cx="296" cy="112.5" rx="9" ry="9.5"></ellipse>
                    <path d="M307,130.077497 C307,130.077497 283.087366,133.176277 287.556611,131.505506 C290.66457,130.341678 291.907753,128.067573 292.162606,125.547136 C293.352954,124.069147 295.746082,122.998139 297.281413,122.430506 C298.689365,121.886011 300.209793,121.857319 301.632555,122.348395 C302.190735,122.539539 302.721593,122.823381 303.20829,123.190921 C303.894548,125.84448 305.206915,128.228025 307,130.077497 Z" id="Path" fill="#000000" fill-rule="nonzero" opacity="0.1"></path>
                    <path d="M320,118.152143 L315.103059,120 L315,118.825062 C316.379654,115.99453 318.118351,115.652729 319.700798,116.245539 L320,118.152143 Z" id="Path" fill="#000000" fill-rule="nonzero" opacity="0.1"></path>
                    <path d="M249,112.020548 L244.097222,115 L244,113.69863 C245.752778,112.424658 248.688889,111.113014 248.944444,111 L249,112.020548 Z" id="Path" fill="#000000" fill-rule="nonzero" opacity="0.1"></path>
                    <path d="M317,193.510505 C307.898447,195.295766 294.945533,197.624202 292.890048,196.845525 C291.185798,196.199792 285.740137,196.268164 281,196.465682 C281.039705,193.514303 281.082464,191.558113 281.082464,191.558113 L316.358615,187 C316.358615,187 316.321965,189.016965 317,193.510505 Z" id="Path" fill="#000000" fill-rule="nonzero" opacity="0.1"></path>
                    <path d="M325,191.557929 C325,191.557929 295.106774,197.103289 291.895659,196.046873 C288.684544,194.990457 272.217678,196.13573 272.217678,196.13573 C264.805303,201.500085 267.900647,193.581903 267.900647,193.581903 C267.900647,193.581903 267.248675,189.448388 268.144375,186.104717 C268.74185,183.652028 269.149468,181.149913 269.363015,178.624241 C269.363015,178.624241 269.201545,173.358617 270.097245,172.114613 C270.992945,170.87061 272.050115,162.0836 272.050115,162.0836 C272.050115,162.0836 272.866603,156.100535 272.784345,154.780838 C272.702087,153.461141 273.028073,149.765332 273.028073,149.765332 L274.091336,143.617716 C267.998138,142.739015 249.413886,130.420747 249.413886,130.420747 C248.518186,126.283941 241.593267,116.598485 241.593267,116.598485 C241.492578,115.784566 241.301289,114.986756 241.023553,114.222372 C240.533051,112.813818 247.866214,110 247.866214,110 C247.866214,110 253.322672,117.213904 254.4621,119.149021 C255.601528,121.084138 259.513361,124.694381 259.513361,124.694381 C260.120616,124.626941 260.734058,124.713717 261.304761,124.947789 C261.338274,124.947789 261.365693,124.967535 261.399206,124.977408 C261.432718,124.987281 261.399206,124.977408 261.399206,124.977408 C263.227165,125.66523 265.055124,127.238336 265.055124,127.238336 C267.988999,127.063912 270.024126,129.26231 270.024126,129.26231 C270.024126,129.26231 273.375385,128.735747 273.932913,129.351167 C274.49044,129.966587 277.354243,129.351167 277.354243,129.351167 C277.354243,129.351167 280.205859,122.838249 282.079518,124.743746 C283.953176,126.649244 291.901752,126.547222 291.901752,126.547222 C292.961968,125.026774 295.539391,123.937448 297.151041,123.374684 C298.531196,122.872744 300.021607,122.846294 301.416279,123.298991 C302.017463,123.483985 302.584402,123.780175 303.091909,124.174401 L307.914674,129.275474 C307.914674,129.275474 309.300877,127.340357 309.133314,126.899361 C308.965751,126.458365 310.763244,126.109517 310.763244,126.109517 C310.763244,126.109517 313.124358,125.316383 314.020058,125.053102 C314.915758,124.789821 315.73834,125.836363 315.811458,125.928512 C315.780992,125.816617 315.168626,123.687331 315.406261,122.061569 C315.643895,120.435808 314.428303,118.892322 314.428303,118.892322 C317.279919,111.322988 323.714335,117.661482 323.714335,117.661482 C323.714335,117.661482 324.448566,121.798288 323.796594,123.381266 C323.144621,124.964244 324.448566,128.317788 324.284049,129.186616 C324.119533,130.055444 324.610035,131.562729 324.610035,133.234564 C324.610035,134.9064 323.796594,138.075647 323.306091,139.487493 C322.815589,140.899338 318.89157,144.045548 318.89157,144.045548 C318.89157,144.045548 318.644795,149.061055 316.935653,151.96373 C315.226511,154.866405 316.283681,164.798687 316.283681,164.798687 C316.283681,164.798687 317.913611,172.542445 319.9396,175.000833 C321.965588,177.459221 325,191.557929 325,191.557929 Z" id="Path" fill="#656691" fill-rule="nonzero"></path>
                    <path d="M280.747495,134 C280.747495,134 279.703543,131.309335 278.755464,131.062233 C277.810011,130.763649 276.889384,130.409969 276,130.003661 L276.610747,129 C276.610747,129 280.179358,129.838926 280.747495,130.735815 C281.315632,131.632703 280.747495,134 280.747495,134 Z" id="Path" fill="#000000" fill-rule="nonzero" opacity="0.1"></path>
                    <path d="M265,127.315091 C264.82573,128.20398 257,129 257,129 L260.945746,125 L260.945746,125 L261.04439,125.033167 C261.04439,125.033167 261.04439,125.033167 261.04439,125.033167 C263.043568,125.729685 265,127.315091 265,127.315091 Z" id="Path" fill="#000000" fill-rule="nonzero" opacity="0.1"></path>
                    <circle id="Oval" fill="#575988" fill-rule="nonzero" cx="244" cy="117" r="1"></circle>
                    <circle id="Oval" fill="#575988" fill-rule="nonzero" cx="244" cy="118" r="1"></circle>
                    <circle id="Oval" fill="#575988" fill-rule="nonzero" cx="245" cy="118" r="1"></circle>
                    <circle id="Oval" fill="#575988" fill-rule="nonzero" cx="247" cy="121" r="1"></circle>
                    <circle id="Oval" fill="#575988" fill-rule="nonzero" cx="324" cy="121" r="1"></circle>
                    <circle id="Oval" fill="#575988" fill-rule="nonzero" cx="324" cy="121" r="1"></circle>
                    <circle id="Oval" fill="#575988" fill-rule="nonzero" cx="324" cy="122" r="1"></circle>
                    <path d="M281,158.000311 C280.926071,157.89813 299.537687,182.985329 314,168.488745 C314,168.482153 291.161842,171.79481 281,158.000311 Z" id="Path" fill="#000000" fill-rule="nonzero" opacity="0.1"></path>
                    <path d="M271,170 C271,170 281.861446,170.304018 283,173.453648 L283,176.734006 C282.372122,177.088665 281.606794,177.088665 280.978916,176.734006 C279.88253,176.125969 273.316265,172.781768 271,174.390024 L271,170 Z" id="Path" fill="#000000" fill-rule="nonzero" opacity="0.1"></path>
                    <path d="M271,170 C271,170 280.957743,170.299689 282,173.452798 L282,176.733434 C281.42407,177.088855 280.722387,177.088855 280.146457,176.733434 C279.144619,176.137244 273.122047,172.770528 271,174.390122 L271,170 Z" id="Path" fill="#656691" fill-rule="nonzero"></path>
                    <path d="M276,146 C276,146 277.265812,149.529021 280.290889,153.975188 C282.161114,156.695748 284.427077,159.068337 287,161 C287,161 276.183895,147.648206 276,146 Z" id="Path" fill="#000000" fill-rule="nonzero" opacity="0.1"></path>
                    <path d="M274,132 C274,132 275.951673,140.218391 281,143 L274,132 Z" id="Path" fill="#000000" fill-rule="nonzero" opacity="0.1"></path>
                    <path d="M272.156464,132.002511 C272.112637,131.853341 270.596239,138.385738 278,142 C277.997078,142 274.853256,140.865687 272.156464,132.002511 Z" id="Path" fill="#000000" fill-rule="nonzero" opacity="0.1"></path>
                    <path d="M320.002843,127.00563 C319.877914,127.00563 323.906872,129.738433 325,131 C325,131.009968 322.370246,126.825884 320.002843,127.00563 Z" id="Path" fill="#000000" fill-rule="nonzero" opacity="0.1"></path>
                    <path d="M294.245721,121.193119 C294.385668,121.74607 294.556714,122.352968 295.016982,122.642931 C295.307958,122.794564 295.627128,122.871844 295.94996,122.868832 C298.966586,123.071131 302.104499,123.205997 304.89721,121.955113 C305.417101,121.754457 305.88372,121.41874 306.256247,120.977333 C306.750725,120.31986 306.847133,119.426371 307.046168,118.617173 C307.438018,117.015637 308.271478,115.582683 308.874803,114.062066 C309.885683,111.484106 310.224533,108.654791 309.854429,105.882428 C309.776704,105.030787 309.518037,104.210249 309.098717,103.485181 C308.296357,102.247783 306.840913,101.745406 305.780429,100.760882 C304.719945,99.7763589 304.041981,98.2692286 302.807342,97.5274643 C301.693989,96.853133 300.319402,96.9374244 299.075433,97.166697 C296.608124,97.6228489 294.243765,98.5852476 292.109204,100.00226 C291.393921,100.481035 290.60711,101.030615 289.779871,100.862032 C289.058368,100.713679 288.535901,100.056206 288.069413,99.4391933 C287.478595,100.909418 287.223626,102.512465 287.326141,104.112309 C287.357846,104.34672 287.350472,104.585399 287.304371,104.816985 C287.20208,105.09733 287.045067,105.350371 286.844103,105.558749 C286.100831,106.49607 285.634342,107.979598 286.371394,108.930405 C286.682387,109.341747 287.183084,109.567648 287.494077,109.985734 C288.053863,110.740985 287.864158,111.823286 287.851718,112.78758 C287.818456,113.122441 287.895573,113.459261 288.069413,113.738387 C288.349306,114.105898 288.859333,114.136242 289.291613,114.055323 C289.723892,113.974403 290.165501,113.815935 290.591561,113.920456 C291.056083,114.08818 291.454893,114.420775 291.723573,114.86452 C293.116819,116.769506 293.661056,118.897021 294.245721,121.193119 Z" id="Path" fill="#2D293D" fill-rule="nonzero"></path>
                    <g id="Group" opacity="0.1" transform="translate(285.000000, 100.000000)" fill="#000000" fill-rule="nonzero">
                        <path d="M20.7498529,20.1201408 C20.379924,20.5442386 19.9165593,20.8667897 19.4002941,21.0595775 C16.6208824,22.2711268 13.5110294,22.131831 10.5154412,21.9342254 C10.194943,21.939777 9.8776556,21.8665562 9.58897059,21.7204225 C9.135,21.4385915 8.97132353,20.8587324 8.82308824,20.3274648 C8.2425,18.1052113 7.70205882,16.0773239 6.31852941,14.2308451 C6.0517232,13.8045013 5.65569466,13.4849488 5.19441176,13.3238028 C4.77132353,13.2233803 4.33279412,13.3756338 3.90352941,13.4533803 C3.47426471,13.5311268 2.97705882,13.5019718 2.68985294,13.1488732 C2.51722571,12.8806927 2.44064614,12.5570818 2.47367647,12.2353521 C2.47367647,11.3088732 2.67132353,10.2657746 2.11852941,9.54338028 C1.80970588,9.1384507 1.32176471,8.92464789 1.00058824,8.52943662 C0.543529412,7.95605634 0.555882353,7.18183099 0.812205882,6.45943662 C0.287205882,7.33408451 0.0586764706,8.45816901 0.673235294,9.21943662 C0.982058824,9.61788732 1.47926471,9.83169014 1.78808824,10.2366197 C2.34088235,10.9590141 2.15558824,12.0021127 2.14323529,12.9285915 C2.11020497,13.2503213 2.18678454,13.5739321 2.35941176,13.8421127 C2.63735294,14.1952113 3.14382353,14.2243662 3.57308824,14.1466197 C4.00235294,14.0688732 4.44088235,13.9166197 4.86397059,14.0170423 C5.32525348,14.1781882 5.72128202,14.4977407 5.98808824,14.9240845 C7.37161765,16.7705634 7.91205882,18.8114085 8.49264706,21.0207042 C8.63161765,21.5487324 8.80147059,22.131831 9.25852941,22.413662 C9.54721442,22.5597956 9.86450181,22.6330164 10.185,22.6274648 C13.1805882,22.8250704 16.2966176,22.9514085 19.0698529,21.7528169 C19.5861181,21.5600291 20.0494828,21.237478 20.4194118,20.8133803 C20.6066677,20.5628669 20.7508829,20.2800465 20.8455882,19.9776056 C20.8147059,20.0261972 20.7838235,20.0747887 20.7498529,20.1201408 Z" id="Path"></path>
                        <path d="M1.63058824,5.10211268 C1.76736249,4.95298903 1.87259641,4.77526722 1.93941176,4.58056338 C1.98519125,4.35805894 1.99251329,4.12874003 1.96102941,3.90352113 C1.87964723,2.64102461 2.03600237,1.37407209 2.42117647,0.174929577 L2.36867647,0.106901408 C1.78174428,1.51939756 1.52854351,3.05964134 1.63058824,4.59676056 C1.64601178,4.7648228 1.64601178,4.93405044 1.63058824,5.10211268 Z" id="Path"></path>
                    </g>
                    <path d="M293,127.245802 C293,127.245802 304.01108,129.096341 305,127" id="Path" fill="#000000" fill-rule="nonzero" opacity="0.1"></path>
                    <path d="M316,120 C316,120 324.195991,120 326,124" id="Path" fill="#000000" fill-rule="nonzero" opacity="0.1"></path>
                </g>
            </g>
        </g>
    </g>
</svg>