<?xml version="1.0" encoding="UTF-8"?>
<svg width="206px" height="267px" viewBox="0 0 206 267" version="1.1" xmlns="http://www.w3.org/2000/svg" xmlns:xlink="http://www.w3.org/1999/xlink">
    <!-- Generator: Sketch 62 (91390) - https://sketch.com -->
    <title>undraw_site_content_ihgn</title>
    <desc>Created with Sketch.</desc>
    <defs>
        <linearGradient x1="6.70582014%" y1="50%" x2="96.0087213%" y2="50%" id="linearGradient-1">
            <stop stop-color="#FA6400" offset="0%"></stop>
            <stop stop-color="#FC1A1A" offset="100%"></stop>
        </linearGradient>
        <polygon id="path-2" points="8.22857143 62.967039 20.6313618 50.2085637 31.8573714 61.7561684 53.1565714 39.8461538 70.6285714 58.1615566 70.6285714 76.1346154 8.22857143 76.1346154"></polygon>
        <linearGradient x1="6.70582014%" y1="50%" x2="96.0087213%" y2="50%" id="linearGradient-3">
            <stop stop-color="#FA6400" offset="0%"></stop>
            <stop stop-color="#FC1A1A" offset="100%"></stop>
        </linearGradient>
        <ellipse id="path-4" cx="99.4285714" cy="83.25" rx="6.17142857" ry="6.40384615"></ellipse>
        <linearGradient x1="93.7834983%" y1="42.0315944%" x2="3.39920407%" y2="57.5325575%" id="linearGradient-5">
            <stop stop-color="#FE3838" offset="0%"></stop>
            <stop stop-color="#FA6400" offset="100%"></stop>
        </linearGradient>
        <path d="M314.97245,297.073123 C314.891607,296.941956 312.985412,293.781659 312.324555,287.219223 C311.718399,281.198533 312.108172,271.05019 317.408777,256.894087 C327.450621,230.076294 315.094576,208.43822 314.968325,208.222684 L315.57792,207.871542 C315.609913,207.926194 318.798262,213.443054 320.681753,222.227808 C323.170433,233.874544 322.264212,245.984336 318.069296,257.137973 C308.044664,283.90998 315.497429,296.58364 315.573794,296.708657 L314.97245,297.073123 Z" id="path-6"></path>
        <linearGradient x1="6.70582014%" y1="50%" x2="96.0087213%" y2="50%" id="linearGradient-7">
            <stop stop-color="#FA6400" offset="0%"></stop>
            <stop stop-color="#FC1A1A" offset="100%"></stop>
        </linearGradient>
        <ellipse id="path-8" cx="312.110599" cy="201.5" rx="4.58986175" ry="4.77865613"></ellipse>
        <ellipse id="path-9" cx="326.645161" cy="217.428854" rx="4.58986175" ry="4.77865613"></ellipse>
        <ellipse id="path-10" cx="315.170507" cy="230.171937" rx="4.58986175" ry="4.77865613"></ellipse>
        <ellipse id="path-11" cx="327.410138" cy="239.729249" rx="4.58986175" ry="4.77865613"></ellipse>
        <ellipse id="path-12" cx="312.110599" cy="254.065217" rx="4.58986175" ry="4.77865613"></ellipse>
        <path d="M312.875576,297.869565 C312.875576,297.869565 310.862439,285.017029 295.281106,285.127186 L312.875576,297.869565 Z" id="path-13"></path>
        <path d="M240.186014,264.230924 L238.909252,270.870241 C238.909252,270.870241 236.355693,273.083348 236.355693,275.296455 C236.355693,277.509562 235.504518,278.394804 235.504518,278.394804 C235.504518,278.394804 235.078931,278.394804 234.653343,279.280036 C234.433466,279.763492 234.146699,280.210854 233.802168,280.607883 C233.802168,280.607883 208.692192,307.16516 214.2249,320.443799 C219.757608,333.722438 230.39738,360.722348 230.39738,360.722348 C230.39738,360.722348 242.739587,356.738757 242.739587,353.640408 L230.822988,318.673325 L254.656172,293.001301 L273.807849,320.001215 C273.807849,320.001215 269.977511,367.361694 272.531087,367.804313 C275.084662,368.246932 289.129205,371.345285 289.554799,370.01742 C289.980394,368.689555 292.108355,309.820925 291.25717,307.607818 C290.405984,305.394711 278.063792,278.837441 278.063792,278.837441 C278.063792,278.837441 280.191756,276.181711 278.914967,275.296469 C277.638177,274.411227 275.510219,266.001387 275.510219,266.001387 C275.510219,266.001387 242.313979,260.247315 240.186014,264.230924 Z" id="path-14"></path>
    </defs>
    <g id="Welcome" stroke="none" stroke-width="1" fill="none" fill-rule="evenodd">
        <g id="Desktop-Web-Design---1-" transform="translate(0.000000, -1812.000000)" fill-rule="nonzero">
            <g id="portfolio" transform="translate(-223.000000, 1523.000000)">
                <g id="undraw_site_content_ihgn" transform="translate(97.000000, 153.000000)">
                    <g id="Group-3" transform="translate(125.000000, 136.000000)">
                        <polygon id="Path" fill="#EFEFEF" points="70.6285714 75.4230769 8.22857143 75.4230769 8.22857143 33.4423077 65.5861843 33.4423077"></polygon>
                        <ellipse id="Oval" fill="#3F3D56" cx="46.9714286" cy="45.8942308" rx="5.82857143" ry="6.04807692"></ellipse>
                        <g id="Path">
                            <use fill="#6C63FF" xlink:href="#path-2"></use>
                            <use fill="url(#linearGradient-1)" xlink:href="#path-2"></use>
                        </g>
                        <path d="M67.8857143,15.5590098 C69.1182175,14.4350283 70.410877,13.3509988 71.7280307,12.3371612 L72.2117277,13.0003319 C70.9123603,14.0008351 69.6369399,15.0702217 68.4211618,16.1790662 L67.8857143,15.5590098 Z M75.8169904,9.45375946 C77.2119705,8.55523877 78.6612809,7.70576182 80.1242593,6.92874297 L80.4946801,7.66527824 C79.0511857,8.43165141 77.6215383,9.26960008 76.2454519,10.1559723 L75.8169904,9.45375946 Z M84.6202534,4.77940588 C86.1379202,4.13079289 87.7029639,3.53831849 89.2722121,3.01787964 L89.519996,3.80686976 C87.9714918,4.32007064 86.4272982,4.90489133 84.9299974,5.54471584 L84.6202534,4.77940588 Z M94.233729,2.45816013 L94.049016,1.65147036 C95.6542213,1.26341416 97.2918789,0.939259311 98.9162201,0.687845403 L99.0362905,1.50763781 C97.4334593,1.75557244 95.817683,2.07535861 94.233729,2.45816013 Z M103.898295,0.964663777 L103.844353,0.137640216 C105.487027,0.0245758599 107.154388,-0.0191791156 108.80014,0.00766340323 L108.787427,0.836619135 C107.163693,0.809936778 105.518783,0.853129482 103.898295,0.964650146 L103.898295,0.964663777 Z M113.670222,1.12555873 L113.749939,0.300852409 C115.388737,0.468191336 117.041545,0.708530193 118.662298,1.01515238 L118.516298,1.83039891 C116.917313,1.52777055 115.286887,1.29064857 113.670222,1.1255451 L113.670222,1.12555873 Z M143.898799,110.341999 C145.187008,109.327957 146.450836,108.244946 147.655331,107.122812 L148.197025,107.737017 C146.976068,108.874432 145.69504,109.972286 144.389336,111 L143.898799,110.341999 Z M123.288579,2.94452871 L123.499487,2.14454532 C125.087934,2.58715552 126.679027,3.10370618 128.228838,3.67980995 L127.954504,4.45911537 C126.425411,3.89085614 124.855576,3.3811652 123.288579,2.94452871 Z M151.140798,103.595728 C152.249762,102.376791 153.323463,101.094964 154.331861,99.7858349 L154.96433,100.300487 C153.942105,101.627323 152.853851,102.92644 151.729903,104.161704 L151.140798,103.595728 Z M132.483305,6.36271238 L132.819009,5.60881824 C134.316479,6.31330061 135.803537,7.08998891 137.239445,7.91778602 L136.844994,8.64056097 C135.428199,7.82395818 133.960814,7.05747937 132.483305,6.36271238 Z M157.208597,95.7197777 C158.109687,94.3299847 158.965463,92.8849733 159.752275,91.4247362 L160.457866,91.8263653 C159.660347,93.3061899 158.793052,94.7708025 157.880001,96.1792697 L157.208597,95.7197777 Z M141.010291,11.2774627 L141.460956,10.5902711 C142.825937,11.535733 144.169793,12.5512539 145.455052,13.6085772 L144.951092,14.2556465 C143.682827,13.212397 142.357055,12.2104422 141.010291,11.2774627 Z M161.945349,86.9302925 C162.613516,85.4081033 163.228422,83.8386798 163.772716,82.2659781 L164.532793,82.5436722 C163.980922,84.1378493 163.357903,85.7282643 162.680706,87.2710566 L161.945349,86.9302925 Z M148.640136,17.5550238 L149.194089,16.9527114 C150.391113,18.1155987 151.554647,19.3430689 152.6525,20.6012732 L152.051955,21.1545521 C150.968967,19.9133012 149.821018,18.7023652 148.640136,17.5550238 Z M165.221131,77.4631368 C165.638203,75.8468608 165.994196,74.1950832 166.279167,72.5537093 L167.073355,72.6993275 C166.784292,74.3631207 166.423401,76.0373414 166.000894,77.6755495 L165.221131,77.4631368 Z M155.162638,25.0305751 L155.80542,24.5299827 C156.799138,25.8783516 157.749751,27.2855034 158.630724,28.7125324 L157.949591,29.156475 C157.080645,27.7488086 156.142957,26.3605696 155.162638,25.0305751 Z M166.938767,67.570999 C167.090633,65.9094004 167.176425,64.2198586 167.193617,62.5495192 L168,62.5584645 C167.982635,64.2514413 167.895769,65.9640464 167.741778,67.648596 L166.938767,67.570999 Z M160.395873,33.5087456 L161.110423,33.1244515 C161.873169,34.6213624 162.584927,36.1716244 163.226141,37.7317891 L162.483124,38.0542708 C161.850462,36.5150464 161.14831,34.9858304 160.395873,33.5087456 L160.395873,33.5087456 Z M167.042268,57.5237457 C166.925146,55.8621471 166.738536,54.1816698 166.487393,52.5291357 L167.284379,52.4013262 C167.538748,54.0762149 167.728093,55.7795715 167.846672,57.4637973 L167.042268,57.5237457 Z M164.198767,42.7610623 L164.965018,42.502206 C165.478362,44.1070049 165.935184,45.7609975 166.320307,47.4034346 L165.536071,47.597674 C165.156104,45.9756184 164.705181,44.3449175 164.198767,42.7610623 L164.198767,42.7610623 Z" id="Shape" fill="#3F3D56"></path>
                        <polygon id="Rectangle" fill="#3F3D56" transform="translate(117.824311, 29.581990) rotate(45.000000) translate(-117.824311, -29.581990) " points="114.377021 25.1418959 121.115666 25.2618451 121.2716 34.0220843 114.532955 33.9021351"></polygon>
                        <path d="M99.4285714,83.25 L0,83.25 L0,20.6346154 L77.2692344,20.6346154 L77.3491673,20.8602234 L99.4285714,83.25 Z M0.664115331,82.5619189 L98.4777974,82.5619189 L76.8055225,21.3226965 L0.664115331,21.3226965 L0.664115331,82.5619189 Z" id="Shape" fill="#3F3D56"></path>
                        <path d="M70.6285714,75.4230769 L8.22857143,75.4230769 L8.22857143,27.0384615 L70.6285714,27.0384615 L70.6285714,75.4230769 Z M8.88888889,74.7367703 L69.968254,74.7367703 L69.968254,27.7247681 L8.88888889,27.7247681 L8.88888889,74.7367703 Z" id="Shape" fill="#3F3D56"></path>
                        <g id="Oval">
                            <use fill="#6C63FF" xlink:href="#path-4"></use>
                            <use fill="url(#linearGradient-3)" xlink:href="#path-4"></use>
                        </g>
                    </g>
                    <g id="Group-2">
                        <path d="M127.751152,292.294466 L127.751152,377.513834 L331.235023,377.513834 L331.235023,292.294466 L127.751152,292.294466 Z M305.408224,314.418725 L288.972988,314.418725 L288.972988,305.405138 L305.408224,305.405138 L305.408224,314.418725 Z" id="Shape" fill="url(#linearGradient-5)"></path>
                        <g id="Path">
                            <use fill="#3F3D56" xlink:href="#path-6"></use>
                            <use fill="#414141" xlink:href="#path-6"></use>
                        </g>
                        <g id="Oval">
                            <use fill="#FC1A1A" xlink:href="#path-8"></use>
                            <use fill="url(#linearGradient-7)" xlink:href="#path-8"></use>
                        </g>
                        <g id="Oval">
                            <use fill="#3F3D56" xlink:href="#path-9"></use>
                            <use fill="#414141" xlink:href="#path-9"></use>
                        </g>
                        <g id="Oval">
                            <use fill="#FA6400" xlink:href="#path-10"></use>
                            <use fill="url(#linearGradient-7)" xlink:href="#path-10"></use>
                        </g>
                        <g id="Oval">
                            <use fill="#E28242" xlink:href="#path-11"></use>
                            <use fill="url(#linearGradient-7)" xlink:href="#path-11"></use>
                        </g>
                        <g id="Oval">
                            <use fill="#3F3D56" xlink:href="#path-12"></use>
                            <use fill="#414141" xlink:href="#path-12"></use>
                        </g>
                        <path d="M317.437105,297.073123 C317.437105,297.073123 312.833077,285.69537 326.645161,277.162055 L317.437105,297.073123 Z" id="Path" fill="#414141"></path>
                        <g id="Path">
                            <use fill="#3F3D56" xlink:href="#path-13"></use>
                            <use fill="#414141" xlink:href="#path-13"></use>
                        </g>
                        <ellipse id="Oval" fill="#A0616A" cx="257.414747" cy="193.933794" rx="10.3271889" ry="10.7519763"></ellipse>
                        <path d="M250.938049,197.631564 C250.938049,197.631564 254.319122,205.823548 249.670147,209.009319 C245.021171,212.19509 257.277559,225.393281 257.277559,225.393281 L270.801843,209.919539 C270.801843,209.919539 263.617066,204.913325 264.884969,196.721344 L250.938049,197.631564 Z" id="Path" fill="#A0616A"></path>
                        <path d="M226.401418,231.764822 L223.393818,249.362565 C223.393818,249.362565 218.237931,259.921207 218.237931,269.160022 C218.237931,278.398837 217.378627,280.158613 217.378627,280.158613 C217.378627,280.158613 208.785481,297.756352 214.800682,298.636239 C220.815883,299.516126 223.393828,280.598555 223.393828,280.598555 C223.393828,280.598555 231.557315,259.921207 231.557315,253.322046 L237.142857,238.803908 L226.401418,231.764822 Z" id="Path" fill="#A0616A"></path>
                        <path d="M288.863063,233.357708 L289.757165,248.759387 C289.757165,248.759387 292.886558,256.68025 290.651266,270.761785 L288.863042,284.403274 C288.863042,284.403274 292.886547,299.804954 288.863042,300.245003 C284.839537,300.685053 279.921917,290.563946 282.604256,284.843323 L282.604256,280.002793 C282.604256,280.002793 279.921917,259.32054 280.816029,255.800155 L277.686636,239.07833 L288.863063,233.357708 Z" id="Path" fill="#A0616A"></path>
                        <polygon id="Path" fill="#A0616A" points="234.082949 355.661438 238.625 367.956522 248.617512 366.06497 242.258641 352.824111"></polygon>
                        <polygon id="Path" fill="#A0616A" points="273.708756 363.974308 272.331797 380.699605 283.806452 380.699605 283.347465 366.174959"></polygon>
                        <g id="Path">
                            <use fill="#1F1F1F" xlink:href="#path-14"></use>
                            <use fill="#414141" xlink:href="#path-14"></use>
                        </g>
                        <path d="M259.412188,213.918527 L250.845851,208.434948 C250.845851,208.434948 245.812582,208.625287 244.537636,209.948598 C243.26269,211.271909 235.612903,214.800733 235.612903,214.800733 C235.612903,214.800733 237.312851,267.733123 240.712751,265.968707 C244.112651,264.204292 241.562715,262.880985 244.112647,264.204296 C246.66258,265.527606 276.836668,265.968707 277.261657,265.968707 C277.686646,265.968707 278.111621,265.086512 278.111621,265.086512 L279.811569,238.1792 L285.336406,215.682935 L268.979701,207.871542 L259.412188,213.918527 Z" id="Path" fill="#D0CDE1"></path>
                        <path d="M238.672811,214.243083 L235.1777,214.243083 C235.1777,214.243083 230.371925,215.613992 228.187481,222.925614 C226.003037,230.237237 225.12926,233.436046 226.003037,234.349999 C226.876814,235.263953 238.672811,242.118577 238.672811,242.118577 L238.672811,214.243083 Z" id="Path" fill="#D0CDE1"></path>
                        <path d="M278.308832,215.039526 L284.143084,215.495433 C284.143084,215.495433 291.644266,234.643787 289.560604,235.555613 C287.476941,236.467439 275.391705,243.306138 275.391705,241.938398 C275.391705,240.570657 278.308832,215.039526 278.308832,215.039526 Z" id="Path" fill="#D0CDE1"></path>
                        <path d="M238.218953,361.307862 L234.717969,359.992095 L226.626071,370.95696 C226.626071,370.95696 211.598259,381.921825 225.337989,381.483232 C225.337989,381.483232 236.07214,379.728851 236.930875,376.658689 C236.930875,376.658689 249.382488,373.149933 249.382488,370.95696 C249.382488,368.763986 246.520949,362.917898 245.590206,362.770773 C244.659463,362.623647 240.795152,364.378025 238.218953,361.307862 Z" id="Path" fill="#2F2E41"></path>
                        <path d="M283.831085,376.767798 C283.831085,376.767798 273.306981,376.589162 273.374275,376.904464 C273.441569,377.219765 270.411293,384.451226 270.844191,387.163022 C271.277089,389.874818 275.173157,393.49055 274.307364,395.298418 C273.441572,397.106286 276.904742,402.529878 283.831085,402.981842 C290.757428,403.433807 289.891636,395.298418 289.891636,395.298418 L286.428466,386.711058 L283.831085,376.767798 Z" id="Path" fill="#2F2E41"></path>
                        <path d="M250.394018,181.105046 C249.864322,181.555024 249.311512,181.977174 248.737834,182.369781 C248.014444,182.968788 247.34625,183.631244 246.741259,184.349213 L246.058548,185.112069 C245.477562,185.761253 244.861112,186.502178 244.885628,187.372266 C244.894717,187.695121 244.994135,188.008387 245.033073,188.329023 C245.187545,189.600941 244.408625,190.998934 245.049811,192.108896 C245.235184,192.429797 245.521902,192.680706 245.726261,192.989908 C245.98628,193.386229 246.101467,193.859894 246.05241,194.331085 C246.741445,194.359275 247.306668,193.742995 247.522773,193.089377 C247.738877,192.435759 247.709646,191.729664 247.814891,191.049447 C247.920136,190.369229 248.215751,189.648969 248.835028,189.346134 C250.156366,188.699986 251.673659,190.379943 253.084018,189.961304 C254.068757,189.668995 254.58809,188.450626 255.594877,188.246321 C256.315467,188.100094 257.009158,188.52741 257.678959,188.830283 C258.348761,189.133156 259.251635,189.273355 259.725243,188.711942 C260.038808,188.340243 260.072275,187.744604 260.488173,187.492016 C260.986615,187.189297 261.610826,187.610779 261.988208,188.054912 C262.36559,188.499045 262.782432,189.04213 263.365665,189.025966 C264.139401,189.00452 264.732055,187.976062 265.466471,188.220053 C266.295408,188.495448 265.914166,189.819354 266.417117,190.532329 C266.842328,191.135103 267.732785,191.099603 268.464631,191.000016 C268.715501,191.025381 268.961834,190.920331 269.116876,190.721861 C269.271889,190.523391 269.313921,190.25934 269.228093,190.022702 L268.922408,185.976949 C268.921074,185.698119 268.859945,185.422806 268.743131,185.169518 C268.530312,184.784714 268.089602,184.589834 267.789908,184.267771 C267.159783,183.590617 267.190066,182.403494 266.406504,181.911085 C265.999647,181.655403 265.467454,181.663078 265.063473,181.402889 C264.545409,181.069212 264.3785,180.400947 264.01559,179.903437 C263.496775,179.192196 262.589727,178.862437 261.712925,178.771956 C260.836122,178.681474 259.951153,178.7906 259.070047,178.761921 C257.278768,178.703597 255.487541,178.200442 253.687527,178.494984 C252.11705,178.752002 251.457715,180.082011 250.394018,181.105046 Z" id="Path" fill="#101010"></path>
                    </g>
                </g>
            </g>
        </g>
    </g>
</svg>