<?xml version="1.0" encoding="utf-8"?>
<!-- Generator: Adobe Illustrator 24.1.1, SVG Export Plug-In . SVG Version: 6.00 Build 0)  -->
<svg version="1.1" id="Layer_1" xmlns="http://www.w3.org/2000/svg" xmlns:xlink="http://www.w3.org/1999/xlink" x="0px" y="0px"
	 viewBox="0 0 76 71" style="enable-background:new 0 0 76 71;" xml:space="preserve">
<style type="text/css">
	.st0{fill:#FC6152;}
	.st1{fill:#FF6666;}
	.st2{fill:#FFFFFF;}
</style>
<desc>Created with Sketch.</desc>
<g id="Welcome">
	<g id="Desktop-Web-Design---1-" transform="translate(-352.000000, -930.000000)">
		<g id="Services" transform="translate(-594.000000, 801.000000)">
			<g id="service-box-3" transform="translate(876.000000, 107.000000)">
				<g id="vector" transform="translate(70.000000, 22.000000)">
					<g id="Group" transform="translate(6.000000, 1.000000)">
						<polygon id="Path" class="st0" points="31.9,4 31.9,0 36.6,0 36.6,7.9 31.9,7.9 						"/>
						<polygon id="Path_1_" class="st0" points="64.1,4 64.1,0 68.8,0 68.8,7.9 64.1,7.9 						"/>
						<polygon id="Path_2_" class="st0" points="0.1,4 0.1,0 4.5,0 4.5,7.9 0.1,7.9 						"/>
					</g>
					<path id="Path_3_" class="st1" d="M49.8,38c-2.9-3.4-8-11-9.9-15c-1.9,4-1,12-3.9,15.4l-1.9,1.1l5.1,14.7l5-0.4l6.9-14.3
						L49.8,38z"/>
					<path id="Path_4_" class="st1" d="M48.6,55H38.4c-1.3,0-2.4,1-2.4,2.3V70h15V57.3C51,56,49.9,55,48.6,55L48.6,55z"/>
					<path id="Path_5_" class="st2" d="M42,41.5c0,1.9-1.8,3.5-4,3.5s-4-1.6-4-3.5s1.8-3.5,4-3.5S42,39.6,42,41.5z"/>
					<path id="Shape" d="M74.5,0h-8.8c-0.8,0-1.5,0.6-1.5,1.4v2.7H43.9V1.4c0-0.8-0.7-1.4-1.5-1.4h-8.8c-0.8,0-1.5,0.6-1.5,1.4v2.7
						H11.8V1.4c0-0.8-0.7-1.4-1.5-1.4H1.5C0.7,0,0,0.6,0,1.4v8.3c0,0.8,0.7,1.4,1.5,1.4h8.8c0.8,0,1.5-0.6,1.5-1.4V6.9h12.3
						c-4.3,1.8-8.3,4.6-11.5,8C7.3,20.6,4.4,28,4.4,35.6c0,0.8,0.7,1.4,1.5,1.4s1.5-0.6,1.5-1.4C7.4,21.9,17.9,10,32.1,7.4v2.2
						c0,0.8,0.7,1.4,1.5,1.4h8.8c0.8,0,1.5-0.6,1.5-1.4V7.4c12.3,2.2,21.9,11.3,24.2,22.9c0.1,0.7,0.8,1.1,1.5,1.1
						c0.1,0,0.2,0,0.3,0c0.8-0.1,1.3-0.9,1.2-1.6c-1.3-6.5-4.6-12.3-9.7-16.9c-2.8-2.5-6-4.6-9.4-6h12.4v2.7c0,0.8,0.7,1.4,1.5,1.4
						h8.8c0.8,0,1.5-0.6,1.5-1.4V1.4C76,0.6,75.3,0,74.5,0z M8.8,8.3H3V2.8h5.9V8.3z M40.9,8.3h-5.9V2.8h5.9V8.3z M73,8.3h-5.9V2.8
						H73V8.3z"/>
					<path id="Path_6_" d="M69.5,35C69.5,35,69.5,35,69.5,35c-0.8,0-1.5,0.4-1.5,1v0c0,0.5,0.7,1,1.5,1c0.8,0,1.5-0.4,1.5-1V36
						C71,35.4,70.3,35,69.5,35z"/>
					<path id="Shape_1_" d="M51.3,38.3c-6.1-7-10.2-15.3-11.9-24.2C39.3,13.5,38.7,13,38,13c-0.7,0-1.3,0.5-1.5,1.1
						c-1.7,8.9-5.8,17.2-11.9,24.2l-1.3,1.5c-0.4,0.4-0.4,1-0.2,1.5l6.1,12.1h-0.6c-2.5,0-4.6,1.9-4.6,4.3v11.9
						c0,0.8,0.7,1.4,1.5,1.4h25.1c0.8,0,1.5-0.6,1.5-1.4V57.7c0-2.4-2.1-4.3-4.6-4.3h-0.6l6.1-12.1c0.2-0.5,0.2-1.1-0.2-1.5
						L51.3,38.3z M38,39.7c1.3,0,2.3,1,2.3,2.1c0,1.2-1,2.1-2.3,2.1s-2.3-1-2.3-2.1C35.7,40.7,36.7,39.7,38,39.7L38,39.7z
						 M49.1,57.7v10.5H26.9v-4.7h10.2c0.8,0,1.5-0.6,1.5-1.4c0-0.8-0.7-1.4-1.5-1.4H26.9v-3.1c0-0.8,0.7-1.5,1.6-1.5h18.8
						C48.3,56.2,49.1,56.8,49.1,57.7z M43.5,53.4H32.5l-6.3-12.4l0.8-0.9c4.1-4.7,7.3-9.9,9.5-15.5V37c0,0.1,0,0.1,0,0.2
						c-2.2,0.6-3.8,2.5-3.8,4.7c0,2.7,2.4,4.9,5.2,4.9s5.2-2.2,5.2-4.9c0-2.2-1.6-4.1-3.8-4.7c0-0.1,0-0.1,0-0.2V24.6
						c2.3,5.6,5.5,10.8,9.5,15.5l0.8,0.9L43.5,53.4z"/>
					<path id="Path_7_" d="M43.4,62.3C43.2,62.5,43,62.7,43,63c0,0.3,0.2,0.5,0.4,0.7c0.3,0.2,0.7,0.3,1.1,0.3s0.8-0.1,1.1-0.3
						c0.3-0.2,0.4-0.4,0.4-0.7c0-0.3-0.2-0.5-0.4-0.7S44.9,62,44.5,62S43.7,62.1,43.4,62.3z"/>
				</g>
			</g>
		</g>
	</g>
</g>
</svg>
